<?xml version="1.0" encoding="UTF-8"?>
<svg width="179px" height="54px" viewBox="0 0 179 54" version="1.1" xmlns="http://www.w3.org/2000/svg" xmlns:xlink="http://www.w3.org/1999/xlink">
    <!-- Generator: Sketch 46.2 (44496) - http://www.bohemiancoding.com/sketch -->
    <title>partners/appio</title>
    <desc>Created with Sketch.</desc>
    <defs>
        <polygon id="path-1" points="0 0.130974545 0 54 60.8359559 54 60.8359559 0.130974545"></polygon>
    </defs>
    <g id="––-Desktop-:-1920px" stroke="none" stroke-width="1" fill="none" fill-rule="evenodd">
        <g id="Home" transform="translate(-1036.000000, -3436.000000)">
            <g id="CONTENT" transform="translate(-320.000000, 0.000000)">
                <g id="partners" transform="translate(635.000000, 3179.000000)">
                    <g id="card" transform="translate(660.000000, 184.000000)">
                        <g id="partners/appio" transform="translate(61.000000, 73.000000)">
                            <path d="M166.777778,38.4980911 C160.391099,38.4980911 157.18155,34.7615953 157.18155,27.2886037 C157.18155,19.9455771 160.391099,16.2743888 166.777778,16.2743888 C173.164456,16.2743888 176.374005,19.9455771 176.374005,27.2886037 C176.374005,34.7615953 173.196876,38.4980911 166.777778,38.4980911 L166.777778,38.4980911 Z M166.777778,14 C158.640436,14 154.555556,18.4509788 154.555556,27.3535862 C154.587975,36.2565186 158.672856,40.7078223 166.777778,40.7078223 C174.915119,40.7078223 179,36.2565186 179,27.3535862 C179,18.4509788 174.915119,14 166.777778,14 L166.777778,14 Z M147.779841,40.4803834 L150.405836,40.4803834 L150.405836,14.2599301 L147.779841,14.2599301 L147.779841,40.4803834 Z M130.921603,38.0107221 C128.684645,38.0107221 126.253168,37.5561693 123.627174,36.6464138 L123.627174,17.2163106 C126.188329,16.8264154 128.652225,16.6314678 130.986443,16.6314678 C137.729738,16.6314678 141.068966,19.9780684 141.068966,26.7037609 C141.068966,34.2095687 137.697318,38.0107221 130.921603,38.0107221 L130.921603,38.0107221 Z M131.018862,14.2596052 C127.323018,14.2596052 123.98379,14.6170092 121.001179,15.3318171 L121.001179,50 L123.627174,50 L123.627174,39.2457152 C126.415267,40.0901633 128.846743,40.4803834 130.954023,40.4803834 C139.383142,40.4803834 143.630121,35.8987897 143.630121,26.7037609 C143.630121,18.4184875 139.415561,14.2596052 131.018862,14.2596052 L131.018862,14.2596052 Z M104.629237,38.0107221 C102.392278,38.0107221 99.9608017,37.5561693 97.334807,36.6464138 L97.334807,17.2163106 C99.8959623,16.8264154 102.359859,16.6314678 104.694076,16.6314678 C111.437371,16.6314678 114.776599,19.9780684 114.776599,26.7037609 C114.776599,34.2095687 111.404951,38.0107221 104.629237,38.0107221 L104.629237,38.0107221 Z M104.726496,14.2596052 C101.030651,14.2596052 97.6914235,14.6170092 94.7088123,15.3318171 L94.7088123,50 L97.334807,50 L97.334807,39.2457152 C100.1229,40.0901633 102.554377,40.4803834 104.661656,40.4803834 C113.090775,40.4803834 117.337754,35.8987897 117.337754,26.7037609 C117.337754,18.4184875 113.123195,14.2596052 104.726496,14.2596052 L104.726496,14.2596052 Z M87.1874447,35.7038421 C84.3020925,37.3937129 81.2870616,38.238161 78.0775125,38.238161 C73.7656941,38.238161 71.593575,36.4839574 71.593575,33.0073918 C71.593575,29.3358785 74.18715,27.5160426 79.3418803,27.5160426 C81.7733569,27.5160426 84.3993516,27.6784989 87.1550251,28.0034116 L87.1550251,35.7038421 L87.1874447,35.7038421 Z M79.6336575,14.2596052 C76.780725,14.2596052 73.9277925,14.6819917 71.1072797,15.4942734 L71.1072797,17.7364958 C73.9277925,16.8913979 76.780725,16.5015027 79.6336575,16.5015027 C84.6587091,16.5015027 87.1874447,18.5159613 87.1874447,22.5123873 L87.1874447,25.7290228 C84.3993516,25.4041101 81.8057766,25.2416538 79.3743,25.2416538 C72.4689066,25.2416538 69,27.8409552 69,33.0723743 C69,38.0107221 72.0474506,40.4803834 78.1099322,40.4803834 C81.1898025,40.4803834 84.3669319,39.6027942 87.6413204,37.881082 L88.2248747,40.4803834 L89.8134394,40.4803834 L89.8134394,22.4149135 C89.8134394,16.9888717 86.4093722,14.2596052 79.6336575,14.2596052 L79.6336575,14.2596052 Z" id="Fill-1" fill="#00141C"></path>
                            <path d="M150,7 C151.104364,7 152,7.89527273 152,9 C152,10.1047273 151.104364,11 150,11 C148.895273,11 148,10.1047273 148,9 C148,7.89527273 148.895273,7 150,7" id="Fill-3" fill="#00141C"></path>
                            <g id="Group-7">
                                <mask id="mask-2" fill="white">
                                    <use xlink:href="#path-1"></use>
                                </mask>
                                <g id="Clip-6"></g>
                                <path d="M30.434343,18.5564291 C23.7112247,27.06552 19.874128,37.2109745 19.874128,37.2109745 C31.2214398,31.77792 40.896171,37.2109745 40.896171,37.2109745 C36.2719774,25.6582473 30.434343,18.5564291 30.434343,18.5564291 M14.0364935,42.3818836 C14.0364935,42.3818836 19.9725151,26.6073382 30.434343,13.38552 C30.434343,13.38552 39.9123,24.9709745 46.8321925,42.3818836 C46.8321925,42.3818836 31.7133753,33.9051927 14.0364935,42.3818836 M30.434343,0.130974545 C8.59240753,28.3091564 -6.55913979e-05,54.0000655 -6.55913979e-05,54.0000655 C34.3042355,37.0473382 60.8359559,54.0000655 60.8359559,54.0000655 C50.046171,24.6437018 30.434343,0.130974545 30.434343,0.130974545" id="Fill-5" fill="#197E56" mask="url(#mask-2)"></path>
                            </g>
                        </g>
                    </g>
                </g>
            </g>
        </g>
    </g>
</svg>