<?xml version="1.0" standalone="no"?>
<!DOCTYPE svg PUBLIC "-//W3C//DTD SVG 20010904//EN"
 "http://www.w3.org/TR/2001/REC-SVG-20010904/DTD/svg10.dtd">
<svg version="1.0" xmlns="http://www.w3.org/2000/svg"
 width="64.000000pt" height="64.000000pt" viewBox="0 0 64.000000 64.000000"
 preserveAspectRatio="xMidYMid meet">
<metadata>
Created by potrace 1.11, written by Peter Selinger 2001-2013
</metadata>
<g transform="translate(0.000000,64.000000) scale(0.100000,-0.100000)"
fill="#000000" stroke="none">
<path d="M145 583 c-14 -15 -25 -31 -25 -34 0 -4 -27 -53 -60 -108 -33 -56
-60 -109 -59 -119 0 -9 35 -75 77 -147 l77 -130 162 -3 c188 -3 157 -21 259
153 35 60 64 119 64 129 0 17 -68 141 -136 249 l-24 37 -155 0 -154 0 -26 -27z
m136 -184 l42 -70 39 70 c35 63 43 71 69 71 16 0 29 -2 29 -4 0 -3 -18 -35
-39 -73 l-40 -68 40 -71 c34 -63 37 -72 22 -76 -31 -8 -42 2 -79 68 -20 35
-39 64 -43 64 -3 0 -21 -27 -39 -60 -35 -63 -56 -81 -84 -71 -14 5 -11 16 24
75 30 51 38 73 31 85 -5 9 -24 42 -42 74 l-32 57 30 0 c27 0 35 -8 72 -71z"/>
</g>
</svg>
