<?xml version="1.0" standalone="no"?>
<!DOCTYPE svg PUBLIC "-//W3C//DTD SVG 20010904//EN"
 "http://www.w3.org/TR/2001/REC-SVG-20010904/DTD/svg10.dtd">
<svg version="1.0" xmlns="http://www.w3.org/2000/svg"
 width="600.000000pt" height="600.000000pt" viewBox="0 0 600.000000 600.000000"
 preserveAspectRatio="xMidYMid meet">
<metadata>
Created by potrace 1.11, written by Peter Selinger 2001-2013
</metadata>
<g transform="translate(0.000000,600.000000) scale(0.100000,-0.100000)"
fill="#000000" stroke="none">
<path d="M915 4378 c-346 -601 -672 -1164 -723 -1253 l-92 -161 724 -1255 724
-1254 1453 0 1453 0 723 1252 722 1252 -57 98 c-32 54 -359 619 -726 1256
l-668 1157 -1452 0 -1451 0 -630 -1092z m3413 870 c12 -16 1312 -2267 1312
-2274 0 -2 -437 -4 -971 -4 l-970 0 7 23 c8 27 102 189 419 727 437 740 439
744 420 829 -9 42 -57 88 -108 103 -62 18 -451 18 -512 0 -62 -18 -126 -83
-189 -192 -101 -175 -130 -226 -156 -270 -15 -25 -141 -241 -279 -481 -139
-240 -262 -447 -273 -458 -11 -12 -25 -20 -31 -18 -14 4 -67 82 -125 182 -319
555 -658 1134 -680 1161 -24 31 -81 65 -153 92 -20 8 -63 75 -189 294 -90 155
-165 286 -167 291 -2 4 590 7 1315 7 1044 0 1322 -3 1330 -12z m-1789 -1493
l460 -795 -458 -793 -458 -792 -283 -3 -282 -2 22 37 c207 345 910 1545 910
1552 0 10 -902 1553 -922 1579 -8 9 47 12 270 12 l280 0 461 -795z m1938 788
c-3 -5 -213 -363 -467 -797 -358 -611 -461 -793 -453 -805 10 -17 913 -1551
920 -1563 2 -5 -122 -8 -275 -8 l-280 0 -457 791 c-388 672 -457 795 -449 814
5 13 211 372 459 799 l450 776 278 0 c153 0 276 -3 274 -7z"/>
</g>
</svg>
