<?xml version="1.0" encoding="utf-8"?>
<!-- Generator: Adobe Illustrator 21.1.0, SVG Export Plug-In . SVG Version: 6.00 Build 0)  -->
<svg version="1.1" id="Layer_1" xmlns="http://www.w3.org/2000/svg" xmlns:xlink="http://www.w3.org/1999/xlink" x="0px" y="0px"
	 viewBox="0 0 440.2 381.2" style="enable-background:new 0 0 440.2 381.2;" xml:space="preserve">
<style type="text/css">
	.st0{fill:#F5F4F5;}
	.st1{fill:#E1E1E3;}
	.st2{fill:#164987;}
	.st3{fill:#B62F2E;}
	.st4{fill:#B21F24;}
	.st5{fill:#0B4E91;}
	.st6{fill:#2D66B1;}
	.st7{fill:#2560AD;}
	.st8{fill:#F7F8F8;}
	.st9{fill:#FFFFFF;}
	.st10{fill:#EF3F3E;}
	.st11{fill:#ED1C24;}
	.st12{opacity:0;}
</style>
<g>
	<g>
		<polygon class="st0" points="119.7,16.6 320.5,16.6 330.1,0 110,0 		"/>
		<polygon class="st1" points="421,190.6 440.2,190.6 330.1,0 320.5,16.6 		"/>
		<polygon class="st2" points="119.7,16.6 110,0 0,190.6 19.2,190.6 		"/>
		<polygon class="st3" points="421,190.6 320.5,364.6 330.1,381.2 440.2,190.6 		"/>
		<polygon class="st4" points="320.5,364.6 119.7,364.6 110,381.2 330.1,381.2 		"/>
		<polygon class="st5" points="19.2,190.6 0,190.6 110,381.2 119.7,364.6 		"/>
		<polygon class="st6" points="220.1,190.6 19.2,190.6 119.7,364.6 220.1,190.6 		"/>
		<polygon class="st7" points="119.7,16.6 19.2,190.6 220.1,190.6 		"/>
		<path class="st0" d="M220.1,190.6L220.1,190.6L220.1,190.6z"/>
		<polygon class="st8" points="220.1,190.6 320.5,16.6 119.7,16.6 		"/>
		<polygon class="st9" points="220.1,190.6 421,190.6 320.5,16.6 		"/>
		<polygon class="st10" points="220.1,190.6 320.5,364.6 421,190.6 220.1,190.6 		"/>
		<polygon class="st11" points="119.7,364.6 119.7,364.6 320.5,364.6 220.1,190.6 		"/>
	</g>
	<g>
		<g class="st12">
			<path d="M276.5,187.8c0.5-1,1.2-1.9,1.7-2.9c0.5-1,1.2-1.9,1.7-2.9c0.5-1,1.2-1.9,1.7-2.9c1-2,2.1-3.9,3.4-5.8
				c0.6-0.9,1.1-1.9,1.7-2.9c0.3-0.4,0.5-1,0.7-1.4c0.3-0.5,0.7-0.7,0.7-1.3h0.2c0-0.5,0.7-1.4,1-1.8c0.4-0.6,0.6-1.1,1-1.7
				c0.8-1.2,1.4-2.4,2.2-3.6c0.2-0.2,0.3-0.7,0.5-1c0.2-0.3,0.6-0.6,0.7-1c0.2-0.3,0.3-0.6,0.5-1c0.1-0.1,0.4-0.5,0.5-0.7
				c0.6-1.2,1.3-2.4,1.9-3.6c0.3-0.6,0.9-1.1,1.2-1.7c0.2-0.5,0.4-1,0.7-1.4c0.6-0.9,1.1-2,1.7-2.9c1.3-1.9,2.3-4,3.6-6
				c0.6-1,1.2-2.1,1.7-3.1c0.2-0.5,0.7-1,1-1.4c0.3-0.4,0.5-1,0.7-1.4c0.3-0.6,0.9-1.1,1.2-1.7c0.2-0.5,0.4-1,0.7-1.4
				c0.6-0.9,1.1-2,1.7-2.9c1.3-1.9,2.3-4,3.6-6c0.6-1,1.2-2.1,1.7-3.1c0.2-0.5,0.7-1,1-1.4c0.3-0.4,0.5-1,0.7-1.4
				c0.3-0.6,0.9-1.1,1.2-1.7c0.2-0.5,0.4-1,0.7-1.4c0.6-0.9,1.1-2,1.7-2.9c0.7-1,1.4-2.1,1.9-3.1c0.5-1,1.2-1.9,1.7-2.9
				c1-2,2.4-4,3.4-6c0.2-0.4,0.5-0.6,0.7-1c0.1-0.2,0.1-0.5,0.2-0.7c0.2-0.5,0.7-1,1-1.4c0.6-0.9,1.1-2,1.7-2.9
				c0.4-0.5,0.6-1.2,1-1.7c0.3-0.5,0.7-0.9,1-1.4c0.5-1,1.2-1.9,1.7-2.9c1-2,2.4-4,3.4-6c0.5-1.1,1.2-2.1,1.7-3.1
				c0.4-0.9,0.6-1.9,1-2.9c0.3-0.9,0.5-2.1,0.5-3.1c0-0.9,0.1-2,0-2.9c-0.3-2.1-1-4.3-2.4-6c-1.7-2-3.8-2.6-6-3.7h-1
				c0-0.1,0-0.2,0-0.2H331c0-0.1,0-0.2,0-0.2h-2.4c0-0.1,0-0.2,0-0.2H294c0,0.1,0,0.2,0,0.2h-2.4c0,0.1,0,0.2,0,0.2h-1.4
				c0,0.1,0,0.2,0,0.2H289c-2.9,1.1-5.7,2.2-7.7,4.7c-1.9,2.4-3.2,5-4.8,7.4c-2.6,3.8-4.4,8.2-7,12c-1.2,1.9-2.4,4-3.4,6
				c-0.2,0.4-0.5,0.6-0.7,1c-0.1,0.2-0.1,0.5-0.2,0.7c-0.2,0.5-0.7,1-1,1.4c-0.6,0.9-1.1,1.9-1.7,2.9c-1.2,1.9-2.4,4-3.4,6
				c-0.2,0.4-0.5,0.6-0.7,1c-0.1,0.2-0.1,0.5-0.2,0.7c-0.2,0.5-0.7,1-1,1.4c-0.6,0.9-1.1,2-1.7,2.9c-0.6,1-1.2,2.1-1.7,3.1
				c-0.2,0.5-0.7,1-1,1.4c-0.3,0.4-0.5,1-0.7,1.4c-0.5,1.1-1.3,2.1-1.9,3.1c-0.6,0.9-1.1,1.9-1.7,2.9c-0.6,1-1.2,2.1-1.7,3.1
				c-0.5,1-1.2,1.9-1.7,2.9c-0.5,1.1-1.3,2.1-1.9,3.1c-0.3,0.4-0.5,1-0.7,1.4c-0.3,0.5-0.7,0.9-1,1.4c-0.5,1-1.2,2.1-1.7,3.1
				c-0.3,0.5-0.7,0.9-1,1.4c-0.2,0.5-0.4,1-0.7,1.4c-0.7,1-1.4,2-1.9,3.1c-0.5,1-1.2,1.9-1.7,2.9c-0.5,1-1,2.2-1.7,3.1
				c-0.6,0.9-1.1,2-1.7,2.9c-0.7,1-1.4,2.1-1.9,3.1c-0.2,0.5-0.4,1-0.7,1.4c-0.3,0.5-0.7,0.9-1,1.4c-1,2-2.1,4.1-3.4,6
				c-0.4,0.5-0.6,1.2-1,1.7c-0.3,0.5-0.7,0.9-1,1.4c-0.2,0.5-0.4,1-0.7,1.4c-0.3,0.4-0.7,0.8-1,1.3h-1.2c-0.4-0.7-1.1-1.1-1.4-1.8
				c-0.3-0.6-0.7-1.3-1-1.9c-0.3-0.7-0.8-1.3-1.2-1.9c-0.2-0.2-0.3-0.7-0.5-1c-0.2-0.3-0.6-0.6-0.7-1c-0.6-1.3-1.3-2.6-2.2-3.8
				c-0.8-1.2-1.3-2.6-2.2-3.8c-2.6-3.8-4.4-8.2-7-12c-2.6-3.8-4.4-8.2-7-12c-1.2-1.9-2.4-4-3.4-6c-0.2-0.4-0.5-0.6-0.7-1
				c-0.1-0.2-0.1-0.5-0.2-0.7c-0.2-0.5-0.7-1-1-1.4c-0.6-0.9-1.1-2-1.7-2.9c-0.6-1-1.2-2.1-1.7-3.1c-0.2-0.5-0.7-1-1-1.4
				c-0.3-0.4-0.5-1-0.7-1.4c-0.5-1.1-1.3-2.1-1.9-3.1c-0.6-0.9-1.1-1.9-1.7-2.9c-0.6-1-1.2-2.1-1.7-3.1c-0.5-1-1.2-1.9-1.7-2.9
				c-0.5-1.1-1.3-2.1-1.9-3.1c-0.3-0.4-0.5-1-0.7-1.4c-0.3-0.5-0.7-0.9-1-1.4c-0.5-1-1.2-2.1-1.7-3.1c-0.3-0.5-0.7-0.9-1-1.4
				c-0.2-0.5-0.4-1-0.7-1.4c-0.7-1-1.4-2-1.9-3.1c-0.5-1-1.2-1.9-1.7-2.9c-0.5-1-1-2.2-1.7-3.1c-0.6-0.9-1.1-2-1.7-2.9
				c-1.3-1.9-2.3-4-3.6-6c-1.3-2-2.5-4.2-4.6-5.8c-1.9-1.4-3.8-2.2-6-3h-1c0-0.1,0-0.2,0-0.2h-1.4c0-0.1,0-0.2,0-0.2h-2.6
				c0-0.1,0-0.2,0-0.2h-34.3c0,0.1,0,0.2,0,0.2h-2.4c0,0.1,0,0.2,0,0.2H108c0,0.1,0,0.2,0,0.2h-1.2c-1.2,0.6-2.5,1-3.6,1.7
				c-1.4,0.9-2.3,2-3.1,3.2c-0.4,0.6-0.7,1.3-1,1.9c-0.1,0.3-0.1,0.6-0.2,1c0,0.1-0.2,0.7-0.2,0.7c0,0.3,0,0.6,0,1
				c-0.1,0.4-0.2,0.6-0.2,1c-0.1,0.5-0.1,1.2,0,1.7c0.1,1,0.3,2.1,0.5,3.1c0.1,1,0.6,1.9,1,2.9c0.7,2,1.9,4.2,3.1,6
				c0.4,0.6,0.6,1.1,1,1.7c0.3,0.5,0.7,0.9,1,1.4c0.2,0.5,0.4,1,0.7,1.4c0.3,0.5,0.7,0.9,1,1.4c1,2,2.4,4,3.4,6
				c0.5,1.1,1.3,2.1,1.9,3.1c0.6,0.9,1.1,2,1.7,2.9c0.4,0.6,0.6,1.1,1,1.7c0.3,0.5,0.7,0.9,1,1.4c0.2,0.5,0.4,1,0.7,1.4
				c0.3,0.5,0.7,0.9,1,1.4c0.5,1,1,2.2,1.7,3.1c0.6,0.9,1.1,2,1.7,2.9c1.3,2,2.3,4.1,3.6,6c0.3,0.5,0.6,1.1,1,1.7
				c0.3,0.5,0.7,0.9,1,1.4c0.2,0.5,0.4,1,0.7,1.4c0.3,0.5,0.7,0.9,1,1.4c0.5,1,1,2.2,1.7,3.1c0.6,0.9,1.1,2,1.7,2.9
				c1.3,2,2.3,4.1,3.6,6c0.3,0.5,0.6,1.1,1,1.7c0.3,0.5,0.7,0.9,1,1.4c0.2,0.5,0.4,1,0.7,1.4c0.3,0.5,0.7,0.9,1,1.4
				c0.5,1,1,2.2,1.7,3.1c0.6,0.9,1.1,2,1.7,2.9c1.3,1.9,2.3,4.1,3.6,6c0.6,1,1.2,2.1,1.7,3.1c0.2,0.5,0.7,1,1,1.4
				c0.3,0.5,0.7,0.9,1,1.4c1,2,2.2,3.9,3.4,5.9c0.5,1,1.1,2.1,1.7,3c0.6,0.9,1.1,2,1.7,2.9c1.2,1.8,2.4,3.8,3.4,5.8
				c0.5,1.1,1.3,2.1,1.9,3.1c0.6,0.9,1.1,1.9,1.7,2.9c0.6,0.9,1.2,1.9,1.7,2.9c0.5,0.9,0.7,1.7,0.7,2.9c0,2.3-1.9,4.1-2.9,6
				c-1,2-2.1,3.9-3.4,5.8c-1.2,1.8-2.1,3.9-3.4,5.8c-0.6,0.9-1.1,1.9-1.7,2.9c-0.5,0.8-1.4,1.8-1.4,2.8h-0.2
				c-0.6,1.2-1.3,2.3-1.9,3.5c-0.2,0.4-0.5,0.6-0.7,1c-0.1,0.2-0.1,0.5-0.2,0.7c-0.3,0.6-0.9,1.1-1.2,1.7c-0.6,1.2-1.2,2.3-1.9,3.4
				c-0.7,1.1-1.2,2.3-1.9,3.4c-1.3,1.9-2.3,4.1-3.6,6c-0.6,1-1.2,2.1-1.7,3.1c-0.2,0.5-0.7,1-1,1.4c-0.3,0.5-0.7,0.9-1,1.4
				c-1,2-2.4,4-3.4,6c-0.5,1.1-1.3,2.1-1.9,3.1c-0.6,0.9-1.1,1.9-1.7,2.9c-1.3,1.9-2.3,4-3.6,6c-0.6,1-1.2,2.1-1.7,3.1
				c-0.2,0.5-0.7,1-1,1.4c-0.3,0.5-0.5,0.9-0.7,1.4c-0.3,0.6-0.9,1.1-1.2,1.7c-0.2,0.5-0.4,1-0.7,1.4c-0.6,0.9-1.1,2-1.7,2.9
				c-1.3,2-2.3,4.1-3.6,6c-0.4,0.6-0.6,1.1-1,1.7c-0.3,0.5-0.7,0.9-1,1.4c-0.2,0.5-0.4,1-0.7,1.4c-0.3,0.5-0.7,0.9-1,1.4
				c-1,2-2.4,4-3.4,6c-0.3,0.6-0.9,1.1-1.2,1.7c-0.2,0.5-0.4,1-0.7,1.4c-0.6,0.9-1.1,2-1.7,2.9c-0.7,1-1.2,2.1-1.9,3.1
				c-0.6,0.9-1.2,1.9-1.7,2.9c-0.9,1.9-2.1,3.8-2.4,6c-0.2,0.1-0.3,0.3-0.2,0.5c0,0.2,0,0.3,0,0.5c0,0.3-0.2,0.4-0.2,0.7
				c0,0.2,0,0.5,0,0.7c0,0.3-0.2,0.5-0.2,0.7c-0.2,1,0.1,2,0.2,2.9c0.1,0.6,0,1.1,0.2,1.7c0.2,0.5,0.3,1,0.5,1.4
				c0.4,1.2,0.8,1.9,1.7,2.9c0.8,1,1.6,1.8,2.9,2.4c1,0.5,1.9,0.8,2.9,1.3h1.2c0,0.1,0,0.2,0,0.2h1.4c0,0.1,0,0.2,0,0.2h2.4
				c0,0.1,0,0.2,0,0.2h34.8c0-0.1,0-0.2,0-0.2h2.4c0-0.1,0-0.2,0-0.2h1.4c0-0.1,0-0.2,0-0.2h1.2c2.8-1,5.1-2.1,7.2-4.2
				c2.1-2.1,3.6-4.7,4.8-7.2c0.3-0.6,0.9-1.1,1.2-1.7c0.2-0.5,0.4-1,0.7-1.4c0.6-0.9,1.1-1.9,1.7-2.9c1.2-1.9,2.4-4,3.4-6
				c0.2-0.4,0.5-0.6,0.7-1c0.1-0.2,0.1-0.5,0.2-0.7c0.2-0.5,0.7-1,1-1.4c0.6-0.9,1.1-1.9,1.7-2.9c0.6-1,1.2-2.1,1.7-3.1
				c0.2-0.5,0.7-1,1-1.4c0.3-0.4,0.5-1,0.7-1.4c0.5-1.1,1.3-2.1,1.9-3.1c0.6-0.9,1.1-1.9,1.7-2.9c1.3-1.9,2.1-4.1,3.4-6
				c0.7-1,1.4-2,1.9-3.1c0.5-1,1.2-1.9,1.7-2.9c0.5-1,1-2.2,1.7-3.1c0.6-0.9,1.1-2,1.7-2.9c0.7-1,1.4-2.1,1.9-3.1
				c0.2-0.5,0.4-1,0.7-1.4c0.3-0.5,0.7-0.9,1-1.4c1-2,2.1-4.1,3.4-6c2.6-3.8,4.4-8.2,7-12c1.2-1.9,2.4-4,3.4-6
				c0.2-0.4,0.5-0.6,0.7-1c0.1-0.2,0.1-0.5,0.2-0.7c0.2-0.5,0.7-1,1-1.4c0.6-0.9,1.1-1.9,1.7-2.9c0.6-1,1.2-2.1,1.7-3.1
				c0.2-0.5,0.7-1,1-1.4c0.3-0.4,0.5-1,0.7-1.4c0.5-1.1,1.3-2.1,1.9-3.1c0.6-0.9,1.1-1.8,1.7-2.8h1.4c0.4,0.8,1.1,1.3,1.4,2
				c0.3,0.6,0.6,1.3,1,1.9c0.8,1.2,1.5,2.5,2.2,3.8c0.4,0.8,1.1,1.4,1.4,2.2c0.3,0.6,0.6,1.3,1,1.9c0.8,1.2,1.5,2.5,2.2,3.8
				c0.3,0.6,0.9,1.1,1.2,1.7c0.2,0.5,0.4,1,0.7,1.4c0.6,0.9,1.1,1.9,1.7,2.9c1.2,1.9,2.4,4,3.4,6c0.2,0.4,0.5,0.6,0.7,1
				c0.1,0.2,0.1,0.5,0.2,0.7c0.2,0.5,0.7,1,1,1.4c0.6,0.9,1.1,2,1.7,2.9c0.6,1,1.2,2.1,1.7,3.1c0.2,0.5,0.7,1,1,1.4
				c0.3,0.4,0.5,1,0.7,1.4c0.5,1.1,1.3,2.1,1.9,3.1c0.3,0.4,0.5,1,0.7,1.4c0.3,0.5,0.7,0.9,1,1.4c0.5,1,1.2,2.1,1.7,3.1
				c0.3,0.5,0.7,0.9,1,1.4c0.2,0.5,0.4,1,0.7,1.4c0.7,1,1.4,2,1.9,3.1c0.5,1,1.2,1.9,1.7,2.9c1,2,2.1,4.1,3.4,6
				c0.4,0.5,0.6,1.2,1,1.7c0.3,0.5,0.7,0.9,1,1.4c0.2,0.5,0.4,1,0.7,1.4c0.3,0.5,0.7,0.9,1,1.4c1,2,2.1,4.1,3.4,6
				c2.6,3.8,4.4,8.2,7,12c1.2,1.9,2.4,4,3.4,6c0.2,0.4,0.5,0.6,0.7,1c0.1,0.2,0.1,0.5,0.2,0.7c0.2,0.5,0.7,1,1,1.4
				c0.6,0.9,1.1,2,1.7,2.9c1.4,2,2.9,4.1,5,5.5c1.9,1.2,3.9,1.7,6,2.5h1.4c0,0.1,0,0.2,0,0.2h2.4c0,0.1,0,0.2,0,0.2h35
				c0-0.1,0-0.2,0-0.2h2.4c0-0.1,0-0.2,0-0.2h1.4c1.3-0.5,2.6-0.8,3.8-1.4c1.5-0.7,2.6-1.8,3.6-3c1.6-2,1.9-4.8,1.9-7.4
				c0-1.1-0.1-2.1-0.2-3.1c-0.1-0.5-0.2-0.9-0.2-1.4c0,0-0.2-0.6-0.2-0.7c0-0.1-0.2-0.6-0.2-0.7c-1-2-1.9-4.1-3.1-6
				c-1.3-1.9-2.3-4.1-3.6-6c-0.4-0.6-0.6-1.1-1-1.7c-0.3-0.5-0.7-0.9-1-1.4c-0.2-0.5-0.4-1-0.7-1.4c-0.3-0.5-0.7-0.9-1-1.4
				c-1-2-2.4-4-3.4-6c-0.3-0.6-0.9-1.1-1.2-1.7c-0.2-0.5-0.4-1-0.7-1.4c-0.6-0.9-1.1-2-1.7-2.9c-1.3-1.9-2.3-4.1-3.6-6
				c-0.3-0.5-0.6-1.1-1-1.7c-0.3-0.5-0.7-0.9-1-1.4c-0.2-0.5-0.4-1-0.7-1.4c-0.3-0.5-0.7-0.9-1-1.4c-1-2-2.4-4-3.4-6
				c-0.5-1.1-1.3-2.1-1.9-3.1c-0.6-0.9-1.1-2-1.7-2.9c-1.3-1.9-2.3-4-3.6-6c-0.6-1-1.2-2.1-1.7-3.1c-0.2-0.5-0.7-1-1-1.4
				c-0.3-0.5-0.7-0.9-1-1.4c-0.5-1-1-2.2-1.7-3.1c-0.6-0.9-1.1-2-1.7-2.9c-1.3-2-2.3-4.1-3.6-6c-0.4-0.5-0.6-1.2-1-1.7
				c-0.3-0.5-0.7-0.9-1-1.4c-0.5-1-1.2-1.9-1.7-2.9c-1-2-2.3-3.8-3.4-5.9c-0.3-0.6-0.6-1.1-1-1.6c-0.3-0.5-0.7-0.9-1-1.4
				c-0.2-0.5-0.4-1-0.7-1.4c-0.3-0.5-0.7-0.9-1-1.4c-0.2-0.5-0.4-1-0.7-1.4c-0.3-0.5-0.7-0.9-1-1.4c-0.5-1-1.2-1.9-1.7-2.9
				c-1-2-2.4-4-3.4-6c-0.2-0.5-0.7-1-1-1.4c-0.3-0.5-0.5-0.9-0.7-1.4c-0.4-0.9-1.1-1.8-1-2.9C275.5,189.7,276,188.8,276.5,187.8z"/>
			<polygon points="290,311.8 333,311.8 261.8,191 333,69.6 290.4,69.6 220.2,191 			"/>
			<polygon points="150.3,311.7 107.3,311.7 178.5,190.9 107.3,69.6 149.8,69.6 220.1,191 			"/>
		</g>
		<g>
			
				<image style="overflow:visible;" width="1041" height="1110" xlink:href="198E995230DDA762.png"  transform="matrix(0.24 0 0 0.24 95.292 57.5723)">
			</image>
			<g>
				<g>
					<polygon class="st9" points="290,311.8 333,311.8 261.8,191 333,69.6 290.4,69.6 220.2,191 					"/>
					<g>
						<polygon class="st9" points="150.3,311.7 107.3,311.7 178.5,190.9 107.3,69.6 149.8,69.6 220.1,191 						"/>
					</g>
				</g>
			</g>
		</g>
	</g>
</g>
</svg>
