<svg width="32px" height="32px" viewBox="0 0 32 32" version="1.1" xmlns="http://www.w3.org/2000/svg" xmlns:xlink="http://www.w3.org/1999/xlink">
    <g id="––-Desktop-:-1920px" stroke="none" stroke-width="1" fill="none" fill-rule="evenodd">
        <g id="MonkeyFest" transform="translate(-315.000000, -786.000000)" fill="#F33A21">
            <g id="CONTENT" transform="translate(-320.000000, 0.000000)">
                <g id="about" transform="translate(635.000000, 480.000000)">
                    <g id="date" transform="translate(0.000000, 300.000000)">
                        <g id="icons/calendar" transform="translate(0.000000, 6.000000)">
                            <path d="M11.6318359,27.0517578 L10.2080078,27.0517578 L10.2080078,17.8935547 C10.2080078,17.1318321 10.2314451,16.4111362 10.2783203,15.7314453 C10.1552728,15.8544928 10.0175789,15.9833978 9.86523438,16.1181641 C9.71288986,16.2529304 9.01563121,16.8242137 7.7734375,17.8320312 L7,16.8300781 L10.4013672,14.2021484 L11.6318359,14.2021484 L11.6318359,27.0517578 Z M25.0351562,20.609375 C25.0351562,22.8300892 24.6850621,24.4882758 23.9848633,25.5839844 C23.2846645,26.679693 22.2138744,27.2275391 20.7724609,27.2275391 C19.3896415,27.2275391 18.3378942,26.6665095 17.6171875,25.5444336 C16.8964808,24.4223577 16.5361328,22.7773546 16.5361328,20.609375 C16.5361328,18.3710826 16.8847621,16.7099664 17.5820312,15.6259766 C18.2793004,14.5419868 19.3427663,14 20.7724609,14 C22.1669992,14 23.2260706,14.565424 23.949707,15.6962891 C24.6733435,16.8271541 25.0351562,18.464833 25.0351562,20.609375 Z M18.0126953,20.609375 C18.0126953,22.478525 18.2324197,23.8393512 18.671875,24.6918945 C19.1113303,25.5444379 19.8115186,25.9707031 20.7724609,25.9707031 C21.7451221,25.9707031 22.4497048,25.5385785 22.8862305,24.6743164 C23.3227561,23.8100543 23.5410156,22.4550874 23.5410156,20.609375 C23.5410156,18.7636626 23.3227561,17.4116254 22.8862305,16.5532227 C22.4497048,15.6948199 21.7451221,15.265625 20.7724609,15.265625 C19.8115186,15.265625 19.1113303,15.6889606 18.671875,16.5356445 C18.2324197,17.3823285 18.0126953,18.740225 18.0126953,20.609375 Z" id="10"></path>
                            <path d="M27.3333333,32 L4.66666667,32 C2.09333333,32 0,29.9066667 0,27.3333333 L0,7.33333333 C0,4.76 2.09333333,2.66666667 4.66666667,2.66666667 C5.03466667,2.66666667 5.33333333,2.96533333 5.33333333,3.33333333 C5.33333333,3.70133333 5.03466667,4 4.66666667,4 C2.82933333,4 1.33333333,5.496 1.33333333,7.33333333 L1.33333333,27.3333333 C1.33333333,29.1706667 2.82933333,30.6666667 4.66666667,30.6666667 L27.3333333,30.6666667 C29.1706667,30.6666667 30.6666667,29.1706667 30.6666667,27.3333333 L30.6666667,7.33333333 C30.6666667,5.496 29.1706667,4 27.3333333,4 C26.9653333,4 26.6666667,3.70133333 26.6666667,3.33333333 C26.6666667,2.96533333 26.9653333,2.66666667 27.3333333,2.66666667 C29.9066667,2.66666667 32,4.76 32,7.33333333 L32,27.3333333 C32,29.9066667 29.9066667,32 27.3333333,32 Z" id="Shape" fill-rule="nonzero"></path>
                            <path d="M22,4 L10,4 C9.632,4 9.33333333,3.70133333 9.33333333,3.33333333 C9.33333333,2.96533333 9.632,2.66666667 10,2.66666667 L22,2.66666667 C22.368,2.66666667 22.6666667,2.96533333 22.6666667,3.33333333 C22.6666667,3.70133333 22.368,4 22,4 Z" id="Shape" fill-rule="nonzero"></path>
                            <path d="M7.33333333,6.66666667 C6.96533333,6.66666667 6.66666667,6.368 6.66666667,6 L6.66666667,0.666666667 C6.66666667,0.298666667 6.96533333,0 7.33333333,0 C7.70133333,0 8,0.298666667 8,0.666666667 L8,6 C8,6.368 7.70133333,6.66666667 7.33333333,6.66666667 Z" id="Shape" fill-rule="nonzero"></path>
                            <path d="M24.6666667,6.66666667 C24.2986667,6.66666667 24,6.368 24,6 L24,0.666666667 C24,0.298666667 24.2986667,0 24.6666667,0 C25.0346667,0 25.3333333,0.298666667 25.3333333,0.666666667 L25.3333333,6 C25.3333333,6.368 25.0346667,6.66666667 24.6666667,6.66666667 Z" id="Shape" fill-rule="nonzero"></path>
                            <path d="M31.3333333,10.6666667 L0.666666667,10.6666667 C0.298666667,10.6666667 0,10.368 0,10 C0,9.632 0.298666667,9.33333333 0.666666667,9.33333333 L31.3333333,9.33333333 C31.7013333,9.33333333 32,9.632 32,10 C32,10.368 31.7013333,10.6666667 31.3333333,10.6666667 Z" id="Shape" fill-rule="nonzero"></path>
                        </g>
                    </g>
                </g>
            </g>
        </g>
    </g>
</svg>
