<svg width="32px" height="32px" viewBox="0 0 32 32" version="1.1" xmlns="http://www.w3.org/2000/svg" xmlns:xlink="http://www.w3.org/1999/xlink">
    <g id="––-Desktop-:-1920px" stroke="none" stroke-width="1" fill="none" fill-rule="evenodd">
        <g id="MonkeyFest" transform="translate(-315.000000, -849.000000)" fill="#F33A21" fill-rule="nonzero">
            <g id="CONTENT" transform="translate(-320.000000, 0.000000)">
                <g id="about" transform="translate(635.000000, 480.000000)">
                    <g id="time" transform="translate(0.000000, 363.000000)">
                        <g id="icons/clock" transform="translate(0.000000, 6.000000)">
                            <path d="M16,31.3333333 C7.54533333,31.3333333 0.666666667,24.4546667 0.666666667,16 C0.666666667,7.54533333 7.54533333,0.666666667 16,0.666666667 C24.4546667,0.666666667 31.3333333,7.54533333 31.3333333,16 C31.3333333,24.4546667 24.4546667,31.3333333 16,31.3333333 Z M16,2 C8.28,2 2,8.28 2,16 C2,23.72 8.28,30 16,30 C23.72,30 30,23.72 30,16 C30,8.28 23.72,2 16,2 Z" id="Shape"></path>
                            <path d="M24,16.6666667 L16,16.6666667 C15.632,16.6666667 15.3333333,16.368 15.3333333,16 L15.3333333,5.33333333 C15.3333333,4.96533333 15.632,4.66666667 16,4.66666667 C16.368,4.66666667 16.6666667,4.96533333 16.6666667,5.33333333 L16.6666667,15.3333333 L24,15.3333333 C24.368,15.3333333 24.6666667,15.632 24.6666667,16 C24.6666667,16.368 24.368,16.6666667 24,16.6666667 Z" id="Shape"></path>
                        </g>
                    </g>
                </g>
            </g>
        </g>
    </g>
</svg>
