<?xml version="1.0" encoding="UTF-8"?>
<svg width="32px" height="32px" viewBox="0 0 32 32" version="1.1" xmlns="http://www.w3.org/2000/svg" xmlns:xlink="http://www.w3.org/1999/xlink">
    <!-- Generator: Sketch 46.2 (44496) - http://www.bohemiancoding.com/sketch -->
    <title>icons/company</title>
    <desc>Created with Sketch.</desc>
    <defs></defs>
    <g id="––-Desktop-:-1920px" stroke="none" stroke-width="1" fill="none" fill-rule="evenodd">
        <g id="Assety" transform="translate(-140.000000, -375.000000)" fill-rule="nonzero" fill="#F33A21">
            <g id="icons" transform="translate(140.000000, 140.000000)">
                <g id="icons/company" transform="translate(0.000000, 235.000000)">
                    <path d="M12,9.33333333 L9.33333333,9.33333333 C8.96533333,9.33333333 8.66666667,9.632 8.66666667,10 L8.66666667,14 C8.66666667,14.368 8.96533333,14.6666667 9.33333333,14.6666667 L12,14.6666667 C12.368,14.6666667 12.6666667,14.368 12.6666667,14 L12.6666667,10 C12.6666667,9.632 12.368,9.33333333 12,9.33333333 Z M11.3333333,13.3333333 L10,13.3333333 L10,10.6666667 L11.3333333,10.6666667 L11.3333333,13.3333333 Z M12,16 L9.33333333,16 C8.96533333,16 8.66666667,16.2986667 8.66666667,16.6666667 L8.66666667,20.6666667 C8.66666667,21.0346667 8.96533333,21.3333333 9.33333333,21.3333333 L12,21.3333333 C12.368,21.3333333 12.6666667,21.0346667 12.6666667,20.6666667 L12.6666667,16.6666667 C12.6666667,16.2986667 12.368,16 12,16 Z M11.3333333,20 L10,20 L10,17.3333333 L11.3333333,17.3333333 L11.3333333,20 Z M22.6666667,16 L20,16 C19.632,16 19.3333333,16.2986667 19.3333333,16.6666667 L19.3333333,20.6666667 C19.3333333,21.0346667 19.632,21.3333333 20,21.3333333 L22.6666667,21.3333333 C23.0346667,21.3333333 23.3333333,21.0346667 23.3333333,20.6666667 L23.3333333,16.6666667 C23.3333333,16.2986667 23.0346667,16 22.6666667,16 Z M22,20 L20.6666667,20 L20.6666667,17.3333333 L22,17.3333333 L22,20 Z M22.6666667,9.33333333 L20,9.33333333 C19.632,9.33333333 19.3333333,9.632 19.3333333,10 L19.3333333,14 C19.3333333,14.368 19.632,14.6666667 20,14.6666667 L22.6666667,14.6666667 C23.0346667,14.6666667 23.3333333,14.368 23.3333333,14 L23.3333333,10 C23.3333333,9.632 23.0346667,9.33333333 22.6666667,9.33333333 Z M22,13.3333333 L20.6666667,13.3333333 L20.6666667,10.6666667 L22,10.6666667 L22,13.3333333 Z M22.6666667,2.66666667 L20,2.66666667 C19.632,2.66666667 19.3333333,2.96533333 19.3333333,3.33333333 L19.3333333,7.33333333 C19.3333333,7.70133333 19.632,8 20,8 L22.6666667,8 C23.0346667,8 23.3333333,7.70133333 23.3333333,7.33333333 L23.3333333,3.33333333 C23.3333333,2.96533333 23.0346667,2.66666667 22.6666667,2.66666667 Z M22,6.66666667 L20.6666667,6.66666667 L20.6666667,4 L22,4 L22,6.66666667 Z M12,2.66666667 L9.33333333,2.66666667 C8.96533333,2.66666667 8.66666667,2.96533333 8.66666667,3.33333333 L8.66666667,7.33333333 C8.66666667,7.70133333 8.96533333,8 9.33333333,8 L12,8 C12.368,8 12.6666667,7.70133333 12.6666667,7.33333333 L12.6666667,3.33333333 C12.6666667,2.96533333 12.368,2.66666667 12,2.66666667 Z M11.3333333,6.66666667 L10,6.66666667 L10,4 L11.3333333,4 L11.3333333,6.66666667 Z M30.6666667,22.6666667 L26,22.6666667 L26,0.666666667 C26,0.298666667 25.7013333,0 25.3333333,0 L6.66666667,0 C6.29866667,0 6,0.298666667 6,0.666666667 L6,22.6666667 L1.33333333,22.6666667 C0.965333333,22.6666667 0.666666667,22.9653333 0.666666667,23.3333333 L0.666666667,31.3333333 C0.666666667,31.7013333 0.965333333,32 1.33333333,32 L30.6666667,32 C31.0346667,32 31.3333333,31.7013333 31.3333333,31.3333333 L31.3333333,23.3333333 C31.3333333,22.9653333 31.0346667,22.6666667 30.6666667,22.6666667 Z M8.66666667,30.6666667 L4.66666667,30.6666667 L4.66666667,26.6666667 L8.66666667,26.6666667 L8.66666667,30.6666667 Z M19.3333333,30.6666667 L12.6666667,30.6666667 L12.6666667,24 L19.3333333,24 L19.3333333,30.6666667 Z M27.3333333,30.6666667 L23.3333333,30.6666667 L23.3333333,26.6666667 L27.3333333,26.6666667 L27.3333333,30.6666667 Z M30,30.6666667 L28.6666667,30.6666667 L28.6666667,26 C28.6666667,25.632 28.368,25.3333333 28,25.3333333 L22.6666667,25.3333333 C22.2986667,25.3333333 22,25.632 22,26 L22,30.6666667 L20.6666667,30.6666667 L20.6666667,23.3333333 C20.6666667,22.9653333 20.368,22.6666667 20,22.6666667 L12,22.6666667 C11.632,22.6666667 11.3333333,22.9653333 11.3333333,23.3333333 L11.3333333,30.6666667 L10,30.6666667 L10,26 C10,25.632 9.70133333,25.3333333 9.33333333,25.3333333 L4,25.3333333 C3.632,25.3333333 3.33333333,25.632 3.33333333,26 L3.33333333,30.6666667 L2,30.6666667 L2,24 L6.66666667,24 C7.03466667,24 7.33333333,23.7013333 7.33333333,23.3333333 L7.33333333,1.33333333 L24.6666667,1.33333333 L24.6666667,23.3333333 C24.6666667,23.7013333 24.9653333,24 25.3333333,24 L30,24 L30,30.6666667 Z M17.3333333,16 L14.6666667,16 C14.2986667,16 14,16.2986667 14,16.6666667 L14,20.6666667 C14,21.0346667 14.2986667,21.3333333 14.6666667,21.3333333 L17.3333333,21.3333333 C17.7013333,21.3333333 18,21.0346667 18,20.6666667 L18,16.6666667 C18,16.2986667 17.7013333,16 17.3333333,16 Z M16.6666667,20 L15.3333333,20 L15.3333333,17.3333333 L16.6666667,17.3333333 L16.6666667,20 Z M17.3333333,9.33333333 L14.6666667,9.33333333 C14.2986667,9.33333333 14,9.632 14,10 L14,14 C14,14.368 14.2986667,14.6666667 14.6666667,14.6666667 L17.3333333,14.6666667 C17.7013333,14.6666667 18,14.368 18,14 L18,10 C18,9.632 17.7013333,9.33333333 17.3333333,9.33333333 Z M16.6666667,13.3333333 L15.3333333,13.3333333 L15.3333333,10.6666667 L16.6666667,10.6666667 L16.6666667,13.3333333 Z M17.3333333,2.66666667 L14.6666667,2.66666667 C14.2986667,2.66666667 14,2.96533333 14,3.33333333 L14,7.33333333 C14,7.70133333 14.2986667,8 14.6666667,8 L17.3333333,8 C17.7013333,8 18,7.70133333 18,7.33333333 L18,3.33333333 C18,2.96533333 17.7013333,2.66666667 17.3333333,2.66666667 Z M16.6666667,6.66666667 L15.3333333,6.66666667 L15.3333333,4 L16.6666667,4 L16.6666667,6.66666667 Z" id="Shape"></path>
                </g>
            </g>
        </g>
    </g>
</svg>