<svg width="32px" height="32px" viewBox="0 0 32 32" version="1.1" xmlns="http://www.w3.org/2000/svg" xmlns:xlink="http://www.w3.org/1999/xlink">
    <g id="––-Desktop-:-1920px" stroke="none" stroke-width="1" fill="none" fill-rule="evenodd">
        <g id="Home" transform="translate(-315.000000, -846.000000)" fill-rule="nonzero" fill="#F33A21">
            <g id="CONTENT" transform="translate(-320.000000, 0.000000)">
                <g id="xamarin" transform="translate(635.000000, 480.000000)">
                    <g id="devs" transform="translate(0.000000, 360.000000)">
                        <g id="icons/developer" transform="translate(0.000000, 6.000000)">
                            <path d="M16.5,23 C13.1573571,23 10.1879286,20.3076471 8.95564286,16.2339412 C7.836,16.169 7,14.7375882 7,12.8529412 C7,12.3171765 7.07057143,11.7908824 7.20628571,11.3214118 C7.06514286,10.6408824 7,10.0496471 7,9.47058824 C7,4.24823529 11.2614286,0 16.5,0 C21.7385714,0 26,4.24823529 26,9.47058824 C26,10.0496471 25.9348571,10.6408824 25.7937143,11.3214118 C25.9294286,11.7908824 26,12.3171765 26,12.8529412 C26,14.7375882 25.164,16.169 24.0443571,16.2339412 C22.8120714,20.3076471 19.8426429,23 16.5,23 Z M9.43335714,14.7700588 C9.51614286,14.7700588 9.59621429,14.7849412 9.67085714,14.8147059 C9.87171429,14.8958824 10.0427143,15.0528235 10.0956429,15.2625294 C11.0456429,19.0818824 13.6187857,21.6470588 16.5,21.6470588 C19.3812143,21.6470588 21.9543571,19.0818824 22.9043571,15.2625294 C22.9572857,15.0528235 23.1065714,14.8796471 23.3074286,14.7984706 C23.5082857,14.7172941 23.7376429,14.7375882 23.9208571,14.8512353 C24.1542857,14.881 24.6428571,14.1612353 24.6428571,12.8529412 C24.6428571,12.3902353 24.5763571,11.9451176 24.4487857,11.5662941 C24.4094286,11.4512941 24.4026429,11.3268235 24.4297857,11.2064118 C24.575,10.5502353 24.6428571,9.99823529 24.6428571,9.47058824 C24.6428571,4.99370588 20.9907857,1.35294118 16.5,1.35294118 C12.0092143,1.35294118 8.35714286,4.99370588 8.35714286,9.47058824 C8.35714286,9.99823529 8.425,10.5502353 8.57021429,11.2077647 C8.59735714,11.3268235 8.59057143,11.4512941 8.55121429,11.5676471 C8.42364286,11.9451176 8.35714286,12.3902353 8.35714286,12.8529412 C8.35714286,14.1625882 8.86607143,14.8823529 9.03571429,14.8823529 C9.15107143,14.8106471 9.29357143,14.7700588 9.43335714,14.7700588 Z" id="Shape"></path>
                            <path d="M31.3333333,32 L0.666666667,32 C0.298666667,32 0,31.7029679 0,31.336982 L0,30.3636715 C0,26.6985079 2.33866667,23.427177 5.82,22.2231362 L9.24933333,21.036334 C9.5,20.9501416 9.78,21.0204215 9.96,21.2140228 C11.6413333,23.0386484 13.7866667,24.0437837 16,24.0437837 C18.2133333,24.0437837 20.3586667,23.0386484 22.04,21.2140228 C22.2213333,21.0204215 22.5,20.9501416 22.7506667,21.036334 L26.18,22.2231362 L26.18,22.2231362 C29.6613333,23.4258509 32,26.6971818 32,30.3636715 L32,31.336982 C32,31.7029679 31.7013333,32 31.3333333,32 Z M1.33333333,30.673964 L30.6666667,30.673964 L30.6666667,30.3636715 C30.6666667,27.2620732 28.688,24.4933099 25.7426667,23.4749143 L22.7186667,22.4286718 C20.828,24.3288815 18.4573333,25.3698198 16,25.3698198 C13.5426667,25.3698198 11.172,24.3288815 9.28133333,22.4286718 L6.25733333,23.4749143 C3.312,24.4933099 1.33333333,27.2620732 1.33333333,30.3636715 L1.33333333,30.673964 Z" id="Shape"></path>
                            <path d="M22.5870874,12 C22.3288835,12 22.0917574,11.8466667 21.9850507,11.604 C21.9600207,11.548 21.4752296,10.4333333 21.3184629,9.31333333 C18.5559441,9.132 15.6972575,7.76266667 14.2784532,6.34266667 C14.1585728,6.55466667 14.0110277,6.748 13.8384526,6.92266667 C12.7806068,7.98666667 11.0943769,7.99466667 10.2446752,8 C10.0523396,8.44666667 9.9706628,9.89733333 10.0707827,11.2853333 C10.0852737,11.4866667 10.0088664,11.6853333 9.86132133,11.8226667 C9.71377621,11.96 9.51221905,12.0226667 9.31461398,11.992 C9.30539241,11.9906667 8.40563069,11.8546667 7.65868355,11.8546667 C7.29509023,11.8546667 7,11.556 7,11.188 C7,10.82 7.29509023,10.5213333 7.65868355,10.5213333 C8.01569003,10.5213333 8.39377438,10.548 8.71389459,10.5773333 C8.67700831,9.372 8.7376072,7.648 9.32647029,7.00666667 C9.56886583,6.74266667 9.88371657,6.66666667 10.2538967,6.66666667 C11.0469517,6.66666667 12.2668336,6.62533333 12.9083914,5.97733333 C13.2166553,5.668 13.3655178,5.23866667 13.3655178,4.66666667 C13.3655178,4.29866667 13.660608,4 14.0242013,4 C14.3877947,4 14.6828849,4.29866667 14.6828849,4.66666667 C14.7592922,5.336 18.0619315,8 21.9284039,8 C22.2919972,8 22.5870874,8.29866667 22.5870874,8.66666667 C22.5870874,9.32533333 22.8413393,10.1386667 23.0191839,10.6293333 L24.2878084,10.524 C24.6434975,10.5066667 24.9688872,10.7666667 24.9978692,11.1346667 C25.0268513,11.5013333 24.756791,11.8226667 24.3945151,11.8533333 L22.6397821,11.9986667 C22.6226564,12 22.6042132,12 22.5870874,12 Z" id="Shape"></path>
                            <path d="M14.25,13 L12.75,13 C12.336,13 12,12.776 12,12.5 C12,12.224 12.336,12 12.75,12 L14.25,12 C14.664,12 15,12.224 15,12.5 C15,12.776 14.664,13 14.25,13 Z" id="Shape"></path>
                            <path d="M19.25,13 L17.75,13 C17.336,13 17,12.776 17,12.5 C17,12.224 17.336,12 17.75,12 L19.25,12 C19.664,12 20,12.224 20,12.5 C20,12.776 19.664,13 19.25,13 Z" id="Shape"></path>
                        </g>
                    </g>
                </g>
            </g>
        </g>
    </g>
</svg>
