<?xml version="1.0" encoding="UTF-8"?>
<svg width="48px" height="48px" viewBox="0 0 48 48" version="1.1" xmlns="http://www.w3.org/2000/svg" xmlns:xlink="http://www.w3.org/1999/xlink">
    <!-- Generator: Sketch 46.2 (44496) - http://www.bohemiancoding.com/sketch -->
    <title>evebts</title>
    <desc>Created with Sketch.</desc>
    <defs></defs>
    <g id="––-Desktop-:-1920px" stroke="none" stroke-width="1" fill="none" fill-rule="evenodd">
        <g id="Home" transform="translate(-441.000000, -2375.000000)" fill-rule="nonzero" fill="#FFFFFF">
            <g id="CONTENT" transform="translate(-320.000000, 0.000000)">
                <g id="connect" transform="translate(635.000000, 2131.000000)">
                    <g id="events" transform="translate(0.000000, 184.000000)">
                        <g id="evebts" transform="translate(126.000000, 60.000000)">
                            <path d="M21.964,47.42 C20.86,47.42 19.802,46.808 19.28,45.764 L17.122,41.446 C16.874,40.952 17.076,40.352 17.57,40.104 C18.064,39.858 18.666,40.058 18.912,40.552 L21.07,44.87 C21.306,45.342 21.874,45.548 22.354,45.34 L32.68,40.916 C32.934,40.806 33.128,40.604 33.222,40.342 C33.316,40.082 33.302,39.802 33.178,39.554 L31.124,35.446 C30.876,34.952 31.078,34.352 31.572,34.104 C32.066,33.86 32.666,34.056 32.914,34.552 L34.968,38.66 C35.336,39.394 35.384,40.258 35.102,41.03 C34.818,41.802 34.224,42.43 33.468,42.754 L23.142,47.178 C22.758,47.342 22.358,47.42 21.964,47.42 Z" id="Shape"></path>
                            <path d="M38.294,9.724 C32.386,3.816 25.658,0 21.15,0 C19.562,0 18.294,0.46 17.386,1.37 C13.866,4.89 17.536,14.074 25.74,22.278 C31.648,28.184 38.376,32 42.884,32 C44.472,32 45.74,31.54 46.648,30.63 C50.168,27.112 46.498,17.928 38.294,9.724 Z M45.234,29.218 C44.714,29.736 43.924,30 42.884,30 C39.604,30 33.468,27.174 27.156,20.862 C26.766,20.472 26.766,19.838 27.156,19.448 C27.546,19.058 28.18,19.058 28.57,19.448 C34.844,25.724 40.566,28 42.884,28 C43.602,28 43.8,27.824 43.82,27.802 C44.21,27.412 44.844,27.412 45.234,27.802 C45.624,28.192 45.624,28.826 45.234,29.218 Z" id="Shape"></path>
                            <path d="M40.636,30.076 L40.25,30.234 L39.198,29.182 C35.872,27.952 31.568,25.278 27.154,20.864 C26.764,20.474 26.764,19.84 27.154,19.45 C27.544,19.06 28.178,19.06 28.568,19.45 C30.532,21.414 32.426,22.946 34.194,24.18 L17.782,7.766 L17.94,7.38 C18.15,6.87 17.906,6.284 17.396,6.074 C16.886,5.87 16.304,6.108 16.092,6.62 L3.106,38.156 C1.71,37.766 0.952,38.222 0.598,38.58 C0.19,38.988 -0.376,39.952 0.424,41.818 C0.894,42.914 1.746,44.112 2.826,45.192 C3.906,46.272 5.104,47.124 6.2,47.594 C6.886,47.89 7.45,48 7.912,48 C8.7,48 9.18,47.678 9.438,47.42 C9.798,47.06 10.258,46.292 9.852,44.878 L41.398,31.926 C41.908,31.716 42.152,31.132 41.942,30.622 C41.732,30.11 41.144,29.862 40.636,30.076 Z" id="Shape"></path>
                        </g>
                    </g>
                </g>
            </g>
        </g>
    </g>
</svg>