<?xml version="1.0" encoding="UTF-8"?>
<svg width="24px" height="24px" viewBox="0 0 24 24" version="1.1" xmlns="http://www.w3.org/2000/svg" xmlns:xlink="http://www.w3.org/1999/xlink">
    <!-- Generator: Sketch 46.2 (44496) - http://www.bohemiancoding.com/sketch -->
    <title>github</title>
    <desc>Created with Sketch.</desc>
    <defs></defs>
    <g id="––-Desktop-:-1920px" stroke="none" stroke-width="1" fill="none" fill-rule="evenodd">
        <g id="Home" transform="translate(-1476.000000, -3644.000000)" fill-rule="nonzero" fill="#000000">
            <g id="FOOT" transform="translate(314.000000, 3643.000000)">
                <g id="github" transform="translate(1162.000000, 1.000000)">
                    <path d="M12,0.14 C5.383,0.14 0,5.523 0,12.14 C0,17.716 3.95,22.64 9.392,23.848 C9.54,23.879 9.694,23.844 9.813,23.75 C9.931,23.655 10,23.512 10,23.36 L10,20.64 C10,20.364 9.776,20.14 9.5,20.14 L8.5,20.14 C7.252,20.14 6.403,18.957 5.653,17.914 C5.576,17.807 5.5,17.7 5.423,17.596 C5.778,17.784 6.083,18.011 6.384,18.234 C6.983,18.678 7.603,19.137 8.427,19.137 C8.43,19.137 8.434,19.137 8.437,19.137 C8.501,19.144 9.085,19.204 9.537,18.807 C9.749,18.62 10,18.267 10,17.64 L10,17.291 C10,17.067 9.852,16.871 9.636,16.81 C6.863,16.025 5,13.947 5,11.64 C5,10.44 5.493,9.295 6.425,8.328 C6.569,8.179 6.606,7.958 6.519,7.77 C6.147,6.968 6.226,5.877 6.667,5.222 C7.251,5.449 8.008,5.926 8.5,6.51 C8.635,6.671 8.857,6.729 9.054,6.657 C10.929,5.969 13.072,5.969 14.947,6.657 C15.146,6.729 15.367,6.67 15.501,6.51 C15.993,5.926 16.75,5.449 17.333,5.221 C17.775,5.876 17.854,6.968 17.481,7.77 C17.394,7.958 17.431,8.179 17.575,8.328 C18.507,9.295 19,10.44 19,11.64 C19,14.062 16.93,16.231 13.967,16.914 C13.816,16.949 13.689,17.052 13.625,17.193 C13.561,17.334 13.565,17.497 13.638,17.634 C13.885,18.104 14,18.741 14,19.64 L14,23.36 C14,23.512 14.069,23.655 14.187,23.75 C14.277,23.822 14.387,23.86 14.5,23.86 C14.536,23.86 14.572,23.856 14.608,23.848 C20.05,22.64 24,17.716 24,12.14 C24,5.523 18.617,0.14 12,0.14 Z" id="Shape"></path>
                </g>
            </g>
        </g>
    </g>
</svg>