<svg width="32px" height="32px" viewBox="0 0 32 32" version="1.1" xmlns="http://www.w3.org/2000/svg" xmlns:xlink="http://www.w3.org/1999/xlink">
    <g id="––-Desktop-:-1920px" stroke="none" stroke-width="1" fill="none" fill-rule="evenodd">
        <g id="MonkeyFest" transform="translate(-315.000000, -723.000000)" fill="#F33A21" fill-rule="nonzero">
            <g id="CONTENT" transform="translate(-320.000000, 0.000000)">
                <g id="about" transform="translate(635.000000, 480.000000)">
                    <g id="place" transform="translate(0.000000, 237.000000)">
                        <g id="icons/map" transform="translate(0.000000, 6.000000)">
                            <path d="M0.666666667,32 C0.524,32 0.382666667,31.9533333 0.265333333,31.8653333 C0.0986666667,31.74 0,31.5426667 0,31.3333333 L0,12.6666667 C0,12.3693333 0.197333333,12.108 0.484,12.0253333 L9.81733333,9.35866667 C10.016,9.30133333 10.2346667,9.34133333 10.4013333,9.468 C10.568,9.59333333 10.6666667,9.79066667 10.6666667,10 L10.6666667,28.6666667 C10.6666667,28.964 10.4693333,29.2253333 10.1826667,29.308 L0.849333333,31.9746667 C0.789333333,31.992 0.728,32 0.666666667,32 Z M1.33333333,13.1693333 L1.33333333,30.4493333 L9.33333333,28.164 L9.33333333,10.884 L1.33333333,13.1693333 Z" id="Shape"></path>
                            <path d="M20.6666667,32 C20.52,32 20.3746667,31.9506667 20.256,31.8586667 C20.0946667,31.732 20,31.5386667 20,31.3333333 L20,12.6666667 C20,12.3613333 20.208,12.0946667 20.5053333,12.02 L31.172,9.35333333 C31.368,9.3 31.5813333,9.348 31.744,9.47466667 C31.9053333,9.60133333 32,9.79466667 32,10 L32,28.6666667 C32,28.972 31.792,29.2386667 31.4946667,29.3133333 L20.828,31.98 C20.7746667,31.9933333 20.7213333,32 20.6666667,32 Z M21.3333333,13.188 L21.3333333,30.48 L30.6666667,28.1466667 L30.6666667,10.8546667 L21.3333333,13.188 Z" id="Shape"></path>
                            <path d="M15.3333333,9.33333333 C13.496,9.33333333 12,7.83733333 12,6 C12,4.16266667 13.496,2.66666667 15.3333333,2.66666667 C17.1706667,2.66666667 18.6666667,4.16266667 18.6666667,6 C18.6666667,7.83733333 17.1706667,9.33333333 15.3333333,9.33333333 Z M15.3333333,4 C14.2306667,4 13.3333333,4.89733333 13.3333333,6 C13.3333333,7.10266667 14.2306667,8 15.3333333,8 C16.436,8 17.3333333,7.10266667 17.3333333,6 C17.3333333,4.89733333 16.436,4 15.3333333,4 Z" id="Shape"></path>
                            <path d="M20.6666667,32 C20.612,32 20.5586667,31.9933333 20.5053333,31.98 L9.83866667,29.3133333 C9.54133333,29.2386667 9.33333333,28.972 9.33333333,28.6666667 L9.33333333,10 C9.33333333,9.79466667 9.428,9.60133333 9.58933333,9.47466667 C9.75066667,9.348 9.964,9.30266667 10.1613333,9.35333333 L11.5106667,9.69066667 C11.868,9.78 12.0853333,10.1413333 11.996,10.4986667 C11.9066667,10.856 11.5426667,11.0706667 11.188,10.984 L10.6666667,10.8546667 L10.6666667,28.1466667 L20,30.48 L20,13.188 L18.3266667,12.7693333 C17.9693333,12.68 17.752,12.3186667 17.8413333,11.9613333 C17.9293333,11.6026667 18.2893333,11.384 18.6493333,11.476 L20.828,12.02 C21.1253333,12.0933333 21.3333333,12.3613333 21.3333333,12.6666667 L21.3333333,31.3333333 C21.3333333,31.5386667 21.2386667,31.732 21.0773333,31.8586667 C20.9586667,31.9506667 20.8133333,32 20.6666667,32 Z" id="Shape"></path>
                            <path d="M15.3333333,18.6666667 C15.0973333,18.6666667 14.8786667,18.5413333 14.7586667,18.3386667 C14.204,17.396 9.33333333,9.03866667 9.33333333,6 C9.33333333,2.692 12.0253333,0 15.3333333,0 C18.6413333,0 21.3333333,2.692 21.3333333,6 C21.3333333,9.03866667 16.4626667,17.396 15.908,18.3386667 C15.788,18.5413333 15.5693333,18.6666667 15.3333333,18.6666667 Z M15.3333333,1.33333333 C12.76,1.33333333 10.6666667,3.42666667 10.6666667,6 C10.6666667,8.01066667 13.6426667,13.6826667 15.3333333,16.6653333 C17.024,13.6826667 20,8.01066667 20,6 C20,3.42666667 17.9066667,1.33333333 15.3333333,1.33333333 Z" id="Shape"></path>
                        </g>
                    </g>
                </g>
            </g>
        </g>
    </g>
</svg>
