<?xml version="1.0" encoding="UTF-8"?>
<svg width="31px" height="31px" viewBox="0 0 31 31" version="1.1" xmlns="http://www.w3.org/2000/svg" xmlns:xlink="http://www.w3.org/1999/xlink">
    <!-- Generator: Sketch 46.2 (44496) - http://www.bohemiancoding.com/sketch -->
    <title>icons/school</title>
    <desc>Created with Sketch.</desc>
    <defs></defs>
    <g id="––-Desktop-:-1920px" stroke="none" stroke-width="1" fill="none" fill-rule="evenodd">
        <g id="Assety" transform="translate(-140.000000, -273.000000)" fill-rule="nonzero" fill="#F33A21">
            <g id="icons" transform="translate(140.000000, 140.000000)">
                <g id="icons/school" transform="translate(0.000000, 132.000000)">
                    <g id="Group" transform="translate(0.000000, 7.680000)">
                        <path d="M30.3541667,24.32 L0.645833333,24.32 C0.289333333,24.32 0,24.03456 0,23.68 L0,22.74048 C0,19.20256 2.26558333,16.0448 5.638125,14.88256 L8.96029167,13.73696 C9.20441667,13.65376 9.474375,13.7216 9.64875,13.90848 C11.27625,15.67104 13.3545417,16.64 15.5,16.64 C17.6454583,16.64 19.72375,15.66976 21.3499583,13.90848 C21.5243333,13.7216 21.7942917,13.65376 22.0384167,13.73696 L25.3605833,14.88256 C28.7344167,16.04352 31,19.20256 31,22.74048 L31,23.68 C31,24.03456 30.7106667,24.32 30.3541667,24.32 Z M1.29166667,23.04 L29.7083333,23.04 L29.7083333,22.74048 C29.7083333,19.74656 27.7915,17.0752 24.9382083,16.09088 L22.0074167,15.08096 C20.177125,16.9152 17.8818333,17.92 15.5,17.92 C13.1181667,17.92 10.822875,16.9152 8.99258333,15.08096 L6.06179167,16.09088 C3.2085,17.0752 1.29166667,19.74656 1.29166667,22.74048 L1.29166667,23.04 Z" id="Shape"></path>
                        <path d="M13.5625,6.4 L12.2708333,6.4 C11.9143333,6.4 11.625,6.11456 11.625,5.76 C11.625,5.40544 11.9143333,5.12 12.2708333,5.12 L13.5625,5.12 C13.919,5.12 14.2083333,5.40672 14.2083333,5.76 C14.2083333,6.11328 13.919,6.4 13.5625,6.4 Z" id="Shape"></path>
                        <path d="M18.7291667,6.4 L17.4375,6.4 C17.081,6.4 16.7916667,6.11456 16.7916667,5.76 C16.7916667,5.40544 17.081,5.12 17.4375,5.12 L18.7291667,5.12 C19.0856667,5.12 19.375,5.40672 19.375,5.76 C19.375,6.11328 19.0856667,6.4 18.7291667,6.4 Z" id="Shape"></path>
                        <path d="M15.5,15.36 C12.3173333,15.36 9.489875,12.8128 8.31575,8.95744 C7.25141667,8.89344 6.45833333,7.54048 6.45833333,5.76 C6.45833333,4.30976 6.98404167,3.14368 7.75516667,2.7264 C7.75129167,2.67136 7.75,2.61632 7.75,2.56 L7.75,0.64 C7.75,0.28672 8.03933333,0 8.39583333,0 C8.75233333,0 9.04166667,0.28672 9.04166667,0.64 L9.04166667,2.56 C9.04166667,2.70464 9.05975,2.84416 9.07525,2.98496 L9.09333333,3.14496 C9.114,3.33568 9.04554167,3.5264 8.908625,3.66336 C8.77170833,3.80032 8.575375,3.86176 8.38679167,3.84896 C8.38033333,3.84896 8.373875,3.84768 8.36741667,3.8464 C8.18529167,3.91424 7.75,4.58752 7.75,5.76 C7.75,6.99904 8.23566667,7.68 8.39583333,7.68 C8.57020833,7.57248 8.804,7.5392 8.99904167,7.616 C9.18891667,7.6928 9.350375,7.84128 9.40204167,8.04096 C10.3062083,11.65312 12.7565,14.08 15.5,14.08 C18.2435,14.08 20.6937917,11.65312 21.59925,8.04096 C21.649625,7.84256 21.7917083,7.68 21.982875,7.60192 C22.1740417,7.52384 22.3910417,7.54304 22.5667083,7.65184 C22.7695,7.69792 23.25,6.99648 23.25,5.76 C23.25,4.58624 22.8147083,3.91424 22.6312917,3.84512 C22.6248333,3.8464 22.618375,3.8464 22.6119167,3.84768 C22.4194583,3.86176 22.227,3.79904 22.0900833,3.66208 C21.9544583,3.5264 21.886,3.33568 21.905375,3.14368 L21.9234583,2.98368 C21.94025,2.84416 21.9583333,2.70464 21.9583333,2.56 L21.9583333,0.64 C21.9583333,0.28672 22.2476667,0 22.6041667,0 C22.9606667,0 23.25,0.28672 23.25,0.64 L23.25,2.56 C23.25,2.62784 23.2474167,2.69568 23.2435417,2.76352 C24.0392083,3.19872 24.5416667,4.34432 24.5416667,5.76 C24.5416667,7.54048 23.7485833,8.89344 22.68425,8.95744 C21.510125,12.8128 18.6826667,15.36 15.5,15.36 Z" id="Shape"></path>
                    </g>
                    <path d="M16.1458333,6.4 C16.1212917,6.4 16.0980417,6.39872 16.0735,6.39616 L4.4485,5.11616 C4.1385,5.0816 3.89695833,4.832 3.87629167,4.52352 C3.855625,4.21376 4.061,3.93472 4.36454167,3.8592 L14.697875,1.2992 C14.7727917,1.27872 14.8477083,1.2736 14.9265,1.28384 L26.5515,2.56384 C26.8615,2.5984 27.1030417,2.848 27.1237083,3.15648 C27.144375,3.46624 26.939,3.74528 26.6354583,3.8208 L16.302125,6.3808 C16.2504583,6.3936 16.1987917,6.4 16.1458333,6.4 Z M8.16333333,4.2368 L16.1019167,5.11104 L22.8366667,3.4432 L14.8980833,2.56896 L8.16333333,4.2368 Z" id="Shape"></path>
                    <path d="M15.5,10.24 C10.3281667,10.24 8.14395833,8.91904 8.05225,8.86272 C7.86495833,8.74496 7.75,8.54016 7.75,8.32 L7.75,4.48 C7.75,4.12672 8.03933333,3.84 8.39583333,3.84 C8.75233333,3.84 9.04166667,4.12672 9.04166667,4.48 L9.04166667,7.92576 C9.761125,8.24448 11.791625,8.96 15.5,8.96 C19.2057917,8.96 21.2362917,8.24448 21.9583333,7.92576 L21.9583333,3.84 C21.9583333,3.48672 22.2476667,3.2 22.6041667,3.2 C22.9606667,3.2 23.25,3.48672 23.25,3.84 L23.25,8.32 C23.25,8.54016 23.1350417,8.74496 22.94775,8.86144 C22.8560417,8.91904 20.6718333,10.24 15.5,10.24 Z" id="Shape"></path>
                    <path d="M26.4791667,12.8 C26.2350417,12.8 26.0115833,12.66304 25.9017917,12.44672 L24.610125,9.88672 C24.4848333,9.64096 24.5339167,9.34272 24.7315417,9.14816 L25.8333333,8.05504 L25.8333333,3.2 C25.8333333,2.84672 26.1226667,2.56 26.4791667,2.56 C26.8356667,2.56 27.125,2.84672 27.125,3.2 L27.125,8.05504 L28.2280833,9.14816 C28.4244167,9.34272 28.4735,9.64096 28.3495,9.88672 L27.0578333,12.44672 C26.94675,12.66304 26.7232917,12.8 26.4791667,12.8 Z M25.9728333,9.72672 L26.4791667,10.72896 L26.9855,9.72672 L26.4791667,9.22496 L25.9728333,9.72672 Z" id="Shape"></path>
                </g>
            </g>
        </g>
    </g>
</svg>