<?xml version="1.0" encoding="UTF-8"?>
<svg width="48px" height="48px" viewBox="0 0 48 48" version="1.1" xmlns="http://www.w3.org/2000/svg" xmlns:xlink="http://www.w3.org/1999/xlink">
    <!-- Generator: Sketch 46.2 (44496) - http://www.bohemiancoding.com/sketch -->
    <title>slack</title>
    <desc>Created with Sketch.</desc>
    <defs></defs>
    <g id="––-Desktop-:-1920px" stroke="none" stroke-width="1" fill="none" fill-rule="evenodd">
        <g id="Home" transform="translate(-771.000000, -2375.000000)" fill-rule="nonzero" fill="#FFFFFF">
            <g id="CONTENT" transform="translate(-320.000000, 0.000000)">
                <g id="connect" transform="translate(635.000000, 2131.000000)">
                    <g id="slack" transform="translate(330.000000, 184.000000)">
                        <g transform="translate(126.000000, 60.000000)" id="Slack">
                            <path d="M45.9906723,17.402355 C41.0436642,0.908325906 33.8961512,-2.93918111 17.4021221,2.00932791 C0.909592042,6.95633594 -2.93941498,14.103849 2.00909405,30.5978781 C6.95760307,47.0904081 14.1051161,50.9394152 30.5976452,45.9909061 C47.0916743,41.0423971 50.9391813,33.8948841 45.9906723,17.402355 L45.9906723,17.402355 Z M37.6491582,28.109374 L34.5396522,29.1503761 L35.6166542,32.3693821 C36.0531552,33.6713841 35.3511542,35.0813861 34.0476512,35.5178871 C33.7641512,35.6138871 33.4761502,35.6543871 33.1941502,35.6468871 C32.1771482,35.6198871 31.2396462,34.9688861 30.8991462,33.9488841 L29.8206442,30.7313791 L23.4081322,32.8793831 L24.4851342,36.0968881 C24.9216352,37.4003911 24.2196342,38.8103931 22.9161312,39.2468941 C22.6326312,39.3413941 22.3446302,39.3818941 22.0626301,39.3743941 C21.0456281,39.3488941 20.1081261,38.6963931 19.7676261,37.6778911 L18.6891241,34.4588851 L15.5796181,35.5013871 C15.2961181,35.5958871 15.0066171,35.6363871 14.7246171,35.6288871 C13.7091151,35.6033871 12.7716131,34.9508861 12.4296131,33.9308841 C11.9931121,32.6288821 12.6951131,31.2188801 13.9986151,30.7823791 L17.1096211,29.7398771 L15.0411171,23.567366 L11.9316121,24.609868 C11.6481111,24.704368 11.3601111,24.744868 11.0766101,24.737368 C10.0611081,24.711868 9.12360708,24.059367 8.78160608,23.039365 C8.34510508,21.737363 9.04860708,20.32736 10.3506091,19.890859 L13.4616141,18.848358 L12.3831131,15.630852 C11.9466121,14.327349 12.6486131,12.917347 13.9521151,12.482346 C15.2556181,12.045845 16.6656201,12.747847 17.1021211,14.051349 L18.1791231,17.268855 L24.5931342,15.120851 L23.5146322,11.903345 C23.0781322,10.599843 23.7816332,9.18983995 25.0836352,8.75333995 C26.3871382,8.31683894 27.7971402,9.02033995 28.2336412,10.322342 L29.3106432,13.541348 L32.4216482,12.498846 C33.7251512,12.062345 35.1336532,12.765847 35.5701542,14.067849 C36.0066552,15.371351 35.3046532,16.781354 34.0011512,17.217855 L30.8916462,18.258856 L32.9586492,24.432867 L36.0696552,23.390366 C37.3716572,22.955365 38.7816602,23.657366 39.2181602,24.959368 C39.6546612,26.262871 38.9526602,27.672873 37.6491582,28.109374 Z M19.7596761,21.987413 L21.8266791,28.159924 L28.2406912,26.01192 L26.1736872,19.839409 L19.7596761,21.987413 Z"></path>
                        </g>
                    </g>
                </g>
            </g>
        </g>
    </g>
</svg>