<svg width="27px" height="32px" viewBox="0 0 27 32" version="1.1" xmlns="http://www.w3.org/2000/svg" xmlns:xlink="http://www.w3.org/1999/xlink">
    <g id="––-Desktop-:-1920px" stroke="none" stroke-width="1" fill="none" fill-rule="evenodd">
        <g id="MonkeyFest" transform="translate(-318.000000, -975.000000)" fill="#F33A21" fill-rule="nonzero">
            <g id="CONTENT" transform="translate(-320.000000, 0.000000)">
                <g id="about" transform="translate(635.000000, 480.000000)">
                    <g id="speakers" transform="translate(3.000000, 489.000000)">
                        <g id="icons/speaker" transform="translate(0.000000, 6.000000)">
                            <path d="M19.2173333,14.7826667 C15.1733333,14.7826667 11.884,11.4933333 11.884,7.44933333 C11.884,3.40533333 15.1733333,0.116 19.2173333,0.116 C23.2613333,0.116 26.5506667,3.40533333 26.5506667,7.44933333 C26.5506667,11.4933333 23.2613333,14.7826667 19.2173333,14.7826667 Z M19.2173333,1.44933333 C15.9093333,1.44933333 13.2173333,4.14133333 13.2173333,7.44933333 C13.2173333,10.7573333 15.9093333,13.4493333 19.2173333,13.4493333 C22.5253333,13.4493333 25.2173333,10.7573333 25.2173333,7.44933333 C25.2173333,4.14133333 22.5266667,1.44933333 19.2173333,1.44933333 Z" id="Shape"></path>
                            <path d="M23.884,12.7826667 C23.7133333,12.7826667 23.5426667,12.7173333 23.412,12.588 L14.0786667,3.25466667 C13.8186667,2.99466667 13.8186667,2.572 14.0786667,2.312 C14.3386667,2.052 14.7613333,2.052 15.0213333,2.312 L24.3546667,11.6453333 C24.6146667,11.9053333 24.6146667,12.328 24.3546667,12.588 C24.2253333,12.7173333 24.0546667,12.7826667 23.884,12.7826667 Z" id="Shape"></path>
                            <path d="M5.884,25.4493333 C5.71333333,25.4493333 5.54266667,25.384 5.412,25.2546667 L1.412,21.2546667 C1.152,20.9946667 1.152,20.572 1.412,20.312 C4.72666667,16.9973333 9.79466667,10.0813333 11.7026667,7.47733333 L12.012,7.056 C12.2293333,6.76 12.6466667,6.696 12.944,6.91333333 C13.2413333,7.132 13.3053333,7.54933333 13.0866667,7.84533333 L12.7786667,8.26666667 C10.9413333,10.7746667 6.19466667,17.2506667 2.82133333,20.7786667 L6.35466667,24.312 C6.61466667,24.572 6.61466667,24.9946667 6.35466667,25.2546667 C6.22533333,25.384 6.05466667,25.4493333 5.884,25.4493333 Z" id="Shape"></path>
                            <path d="M5.884,25.4493333 C5.71333333,25.4493333 5.54266667,25.384 5.412,25.2546667 C5.152,24.9946667 5.152,24.572 5.412,24.312 C8.8,20.924 15.7746667,15.812 18.4013333,13.888 L18.8226667,13.58 C19.1186667,13.3613333 19.536,13.4266667 19.7546667,13.7226667 C19.9733333,14.0186667 19.9093333,14.436 19.612,14.6546667 L19.1906667,14.964 C16.5866667,16.872 9.67066667,21.94 6.356,25.2546667 C6.22533333,25.384 6.05466667,25.4493333 5.884,25.4493333 Z" id="Shape"></path>
                            <path d="M4.55066667,31.8853333 C3.41333333,31.8853333 2.27733333,31.4533333 1.412,30.588 C-0.318666667,28.8573333 -0.318666667,26.0426667 1.412,24.312 L3.412,22.312 C3.672,22.052 4.09466667,22.052 4.35466667,22.312 C4.61466667,22.572 4.61466667,22.9946667 4.35466667,23.2546667 L2.35466667,25.2546667 C1.144,26.4653333 1.144,28.4346667 2.35466667,29.6453333 C3.56533333,30.856 5.53466667,30.856 6.74533333,29.6453333 L16.7453333,19.6453333 C18.476,17.9146667 21.2906667,17.9146667 23.0213333,19.6453333 C24.752,21.376 24.752,24.1906667 23.0213333,25.9213333 L18.3546667,30.588 C18.0946667,30.848 17.672,30.848 17.412,30.588 C17.152,30.328 17.152,29.9053333 17.412,29.6453333 L22.0786667,24.9786667 C23.2893333,23.768 23.2893333,21.7986667 22.0786667,20.588 C20.868,19.3773333 18.8986667,19.3773333 17.688,20.588 L7.688,30.588 C6.824,31.4533333 5.688,31.8853333 4.55066667,31.8853333 Z" id="Shape"></path>
                            <path d="M11.2173333,16.116 C11.0466667,16.116 10.876,16.0506667 10.7453333,15.9213333 C10.4853333,15.6613333 10.4853333,15.2386667 10.7453333,14.9786667 L12.0786667,13.6453333 C12.3386667,13.3853333 12.7613333,13.3853333 13.0213333,13.6453333 C13.2813333,13.9053333 13.2813333,14.328 13.0213333,14.588 L11.688,15.9213333 C11.5586667,16.0506667 11.388,16.116 11.2173333,16.116 Z" id="Shape"></path>
                        </g>
                    </g>
                </g>
            </g>
        </g>
    </g>
</svg>
