<?xml version="1.0" encoding="UTF-8"?>
<svg width="180px" height="43px" viewBox="0 0 180 43" version="1.1" xmlns="http://www.w3.org/2000/svg" xmlns:xlink="http://www.w3.org/1999/xlink">
    <!-- Generator: Sketch 46.2 (44496) - http://www.bohemiancoding.com/sketch -->
    <title>partners/worklio</title>
    <desc>Created with Sketch.</desc>
    <defs></defs>
    <g id="––-Desktop-:-1920px" stroke="none" stroke-width="1" fill="none" fill-rule="evenodd">
        <g id="Home" transform="translate(-705.000000, -3442.000000)" fill-rule="nonzero">
            <g id="CONTENT" transform="translate(-320.000000, 0.000000)">
                <g id="partners" transform="translate(635.000000, 3179.000000)">
                    <g id="card" transform="translate(330.000000, 184.000000)">
                        <g id="partners/worklio" transform="translate(60.000000, 79.000000)">
                            <g id="Group" transform="translate(41.000000, 5.000000)">
                                <path d="M27.7611858,32.6423333 C25.5945133,31.4743333 24.2070088,29.434 23.7886726,27.2046667 C21.0025664,28.807 17.4672212,28.9886667 14.4329381,27.3516667 C12.1441947,26.1223333 9.27973451,26.963 8.03615929,29.232 C6.79258407,31.5003333 7.64069027,34.338 9.92943363,35.5726667 C16.9163894,39.3336667 25.2548673,38.274 31.0513805,33.547 C29.906,33.4793333 28.7777699,33.1876667 27.7611858,32.6423333 Z" id="Shape" fill="#24BAC9"></path>
                                <path d="M33.6363894,7.11066667 C33.5674513,8.231 33.2587434,9.335 32.7021947,10.3503333 C31.5621947,12.435 29.5636637,13.861 27.2157345,14.288 C28.8356106,17.0493333 29.0178761,20.5556667 27.3697522,23.5596667 C26.1258407,25.828 26.9742832,28.669 29.2626903,29.9033333 C31.5514336,31.1343333 34.4162301,30.2933333 35.6598053,28.025 C39.4520708,21.1076667 38.3863894,12.8566667 33.6363894,7.11066667 Z" id="Shape" fill="#F03955"></path>
                                <path d="M5.27224779,27.7433333 C6.41661947,25.658 8.41212389,24.234 10.7603894,23.8043333 C9.14185841,21.0433333 8.95824779,17.541 10.6063717,14.5296667 C11.8482655,12.262 11.0018407,9.42366667 8.71309735,8.19233333 C6.42300885,6.95833333 3.55989381,7.79933333 2.31631858,10.0676667 C-1.47830088,16.9853333 -0.41060177,25.242 4.34410619,30.9873333 C4.41169912,29.882 4.70762832,28.7743333 5.27224779,27.7433333 Z" id="Shape" fill="#59B89C"></path>
                                <path d="M28.046354,2.52133333 C21.0590619,-1.243 12.7205841,-0.18 6.9240708,4.54566667 C8.06810619,4.614 9.19969912,4.906 10.2146018,5.452 C12.3812743,6.61933333 13.769115,8.65633333 14.1881239,10.8906667 C16.9745664,9.284 20.5102478,9.10533333 23.5428496,10.7386667 C25.8312566,11.9703333 28.6960531,11.131 29.939292,8.86166667 C31.1828673,6.59033333 30.3364425,3.754 28.046354,2.52133333 Z" id="Shape" fill="#F09502"></path>
                            </g>
                            <path d="M12.7147786,30.7888686 L17.6313609,12.7081583 C17.7812424,12.2035486 18.0783229,12.000341 18.575916,12.000341 L22.5496196,12.000341 C23.0948261,12.000341 23.343958,12.2035486 23.4924983,12.7081583 L28.5592973,30.8887677 L32.9792923,16.1412089 L30.5956067,16.1412089 C30.0993548,16.1412089 29.8502229,15.8899269 29.8502229,15.3849763 L29.8502229,12.7586193 C29.8502229,12.2032077 30.0993548,12 30.5956067,12 L36.9526607,12 C37.7966242,12 38.1446712,12.6573564 37.9451645,13.363469 L31.0915233,36.2928645 C30.9433183,36.7971333 30.6448965,37 30.1483093,37 L25.6783538,37 C25.1807607,37 24.8840154,36.7967923 24.734134,36.2413807 L20.0153819,18.4139981 L15.0987996,36.2925236 C14.9505946,36.7967923 14.6521729,36.999659 14.1555857,36.999659 L9.68428893,36.999659 C9.18803702,36.999659 8.88961526,36.7964514 8.741075,36.2925236 L3.32689962,16.1415498 L0.745048473,16.1415498 C0.24913187,16.1415498 0,15.8902679 0,15.3853172 L0,12.7589602 C0,12.2035486 0.24913187,12.000341 0.745048473,12.000341 L7.25097805,12.000341 C7.74722996,12.000341 8.04565171,12.2035486 8.1955332,12.7589602 L12.7147786,30.7888686 Z" id="Shape" fill="#4D4D4D"></path>
                            <path d="M100.391707,12.3952477 C100.949623,12.5923712 101,12.7901618 101,13.2848051 L101,19.9546516 C101,20.4969914 100.74743,20.6957827 100.23852,20.6957827 L96.9383139,20.6957827 C96.4314599,20.6957827 96.1768334,20.4969914 96.2296093,19.9546516 L96.4321453,17.0891892 C96.1775188,17.0388243 95.8235093,17.0388243 95.5688828,17.0388243 C92.5236463,17.0388243 90.1884853,19.6084346 90.1884853,23.8580977 L90.1884853,33.0958868 L95.7727896,33.0958868 C96.2796436,33.0958868 96.5328992,33.3433752 96.5328992,33.8373514 L96.5328992,36.2578683 C96.5328992,36.8012088 96.2799863,37 95.7727896,37 L81.8122001,37 C81.3053461,37 81.0500343,36.7531787 81.0500343,36.2578683 L81.0500343,33.8373514 C81.0500343,33.294678 81.3046607,33.0958868 81.8122001,33.0958868 L84.5037697,33.0958868 L84.5037697,16.5935453 L81.7618232,16.5935453 C81.2549692,16.5935453 81,16.3477246 81,15.8537483 L81,13.2844716 C81,12.7411311 81.2039068,12.5423399 81.7618232,12.5423399 L88.463331,12.5423399 C88.9705278,12.5423399 89.2237834,12.7894948 89.3265936,13.2844716 L89.8845099,16.7923365 C90.9009596,14.4205169 93.4890336,12 97.1442769,12 C98.2601097,12 99.9352296,12.2458207 100.391707,12.3952477 Z" id="Shape" fill="#4D4D4D"></path>
                            <path d="M137.216533,33.0807851 L140.272775,33.0807851 C140.756391,33.0807851 141,33.3292309 141,33.8251179 L141,36.2549976 C141,36.8004398 140.756391,37 140.272775,37 L128.728207,37 C128.243609,37 128,36.7522239 128,36.2549976 L128,33.8251179 C128,33.2803453 128.242954,33.0807851 128.728207,33.0807851 L131.783795,33.0807851 L131.783795,4.06654118 L129.164345,4.06654118 C128.680075,4.06654118 128.436793,3.81742577 128.436793,3.32254328 L128.436793,0.743997901 C128.436793,0.196881533 128.631615,0 129.164345,0 L136.487671,0 C136.972269,0 137.216533,0.196881533 137.216533,0.743997901 L137.216533,33.0807851 Z" id="Shape" fill="#4D4D4D"></path>
                            <path d="M152.217831,33.0881626 L155.273957,33.0881626 C155.758641,33.0881626 156,33.2873471 156,33.8310942 L156,36.2564 C156,36.7520219 155.759296,37 155.273957,37 L143.727353,37 C143.242997,37 143,36.8008155 143,36.2564 L143,33.8310942 C143,33.336809 143.242997,33.0881626 143.727353,33.0881626 L146.784134,33.0881626 L146.784134,16.5531716 L144.164878,16.5531716 C143.680522,16.5531716 143.436215,16.3556581 143.436215,15.811911 L143.436215,13.237551 C143.436215,12.7419291 143.679867,12.493951 144.164878,12.493951 L151.489823,12.493951 C152.022647,12.493951 152.217831,12.7415949 152.217831,13.237551 L152.217831,33.0881626 Z M145.425055,5.56493555 C145.425055,7.54474973 146.68687,9.07806969 148.870566,9.07806969 C151.005794,9.07806969 152.362908,7.54508393 152.362908,5.56493555 C152.362908,3.53365422 151.053607,2.00000005 148.870566,2.00000005 C146.735994,1.99966585 145.425055,3.53365422 145.425055,5.56493555 Z" id="Shape" fill="#4D4D4D"></path>
                            <path d="M168.79962,12 C172.683086,12 180,13.2046764 180,24.2968485 C180,33.6841749 174.624651,38 168.002762,38 C161.232323,38 157,33.8841071 157,25.3514063 C157,14.7607591 164.019478,12 168.79962,12 Z M174.176313,24.9996611 C174.176313,19.377838 172.633009,16.115554 168.351954,16.115554 C164.218441,16.115554 162.625396,19.377838 162.625396,24.246696 C162.625396,28.714673 163.47334,33.8837682 168.450427,33.8837682 C172.53252,33.8841071 174.176313,30.7726195 174.176313,24.9996611 Z" id="Shape" fill="#4D4D4D"></path>
                            <g id="Group" transform="translate(101.000000, 0.000000)" fill="#4D4D4D">
                                <path d="M11.581375,33.0113333 L9.030125,33.0113333 L9.030125,0.82 C9.030125,0.326333333 8.788325,0.0796666667 8.3057,0.0796666667 L1.03675,0.0796666667 C0.510575,0.0796666667 0.314925,0.326 0.314925,0.82 L0.314925,3.33766667 C0.314925,3.83066667 0.55575,4.077 1.03675,4.077 L3.638375,4.077 L3.638375,33.0113333 L1.085175,33.0113333 C0.6045,33.0113333 0.3627,33.2106667 0.3627,33.751 L0.3627,36.1746667 C0.3627,36.6683333 0.6045,36.9143333 1.085175,36.9143333 L11.581375,36.9143333 C12.06465,36.9143333 12.3045,36.7156667 12.3045,36.1746667 L12.3045,33.751 C12.304175,33.2583333 12.064975,33.0113333 11.581375,33.0113333 Z" id="Shape"></path>
                                <path d="M25.157275,33.0113333 L22.31645,33.0113333 L15.7209,21.8053333 L21.0184,16.519 L23.953475,16.519 C24.43415,16.519 24.674975,16.324 24.674975,15.7793333 L24.674975,13.2126667 C24.674975,12.718 24.4348,12.4706667 23.953475,12.4706667 L20.19875,12.4706667 C19.715475,12.4706667 19.331975,12.623 18.9462,13.0153333 L10.865725,21.0773333 C10.865725,21.0773333 10.647,21.264 10.57095,21.4613333 C10.495225,21.659 10.5092,21.9413333 10.5092,21.9413333 L10.5092,23.5803333 C10.5092,23.5803333 10.50075,23.8896667 10.56185,24.1103333 C10.6223,24.3303333 10.79195,24.5953333 10.79195,24.5953333 L17.8399,36.27 C18.128825,36.7146667 18.417425,36.9136667 18.94685,36.9136667 L25.157275,36.9136667 C25.63795,36.9136667 25.878125,36.7146667 25.878125,36.1736667 L25.878125,33.7503333 C25.878125,33.2583333 25.638275,33.0113333 25.157275,33.0113333 Z" id="Shape"></path>
                            </g>
                        </g>
                    </g>
                </g>
            </g>
        </g>
    </g>
</svg>