<?xml version="1.0" encoding="UTF-8"?>
<svg width="24px" height="32px" viewBox="0 0 24 32" version="1.1" xmlns="http://www.w3.org/2000/svg" xmlns:xlink="http://www.w3.org/1999/xlink">
    <!-- Generator: Sketch 46.2 (44496) - http://www.bohemiancoding.com/sketch -->
    <title>icons/code</title>
    <desc>Created with Sketch.</desc>
    <defs></defs>
    <g id="––-Desktop-:-1920px" stroke="none" stroke-width="1" fill="none" fill-rule="evenodd">
        <g id="Home" transform="translate(-319.000000, -783.000000)" fill-rule="nonzero" fill="#F33A21">
            <g id="CONTENT" transform="translate(-320.000000, 0.000000)">
                <g id="xamarin" transform="translate(635.000000, 480.000000)">
                    <g id="code" transform="translate(4.000000, 297.000000)">
                        <g id="icons/code" transform="translate(0.000000, 6.000000)">
                            <path d="M5.46804374,19.4994669 L7.88811585,15.9990523 C8.09212192,15.7033874 8.00811942,15.3048826 7.70277699,15.1082013 C7.39876793,14.9115199 6.98408891,14.9899353 6.77874946,15.2868857 L4.11200334,19.1433836 C3.96266555,19.3593475 3.96266555,19.6408718 4.11200334,19.8568357 L6.77874946,23.7133337 C6.90808665,23.8997311 7.11875959,24 7.33343265,24 C7.46143647,24 7.58944028,23.9652915 7.70277699,23.8907326 C8.00945279,23.6940512 8.09212192,23.2955464 7.88811585,22.9998815 L5.46804374,19.4994669 Z" id="Shape"></path>
                            <path d="M9.4055457,24.9573339 C9.47802682,24.9866668 9.55175761,25 9.6254884,25 C9.87792263,25 10.1166104,24.8346688 10.210336,24.5680056 L13.9593592,13.9014761 C14.0818273,13.5561472 13.91812,13.1721522 13.5944543,13.0428205 C13.2745377,12.9134888 12.9108824,13.0868199 12.789664,13.4321488 L9.04064078,24.0986783 C8.91817269,24.4440072 9.08188003,24.8280022 9.4055457,24.9573339 Z" id="Shape"></path>
                            <path d="M18.5319563,19.5001097 L16.1118842,23.0010243 C15.9078781,23.2967314 15.9918806,23.6952931 16.297223,23.8920026 C16.4105597,23.9652866 16.5385635,24 16.6665673,24 C16.8812404,24 17.0919134,23.8997167 17.2212505,23.7145784 L19.8879967,19.8575295 C20.0373344,19.6415348 20.0373344,19.3599702 19.8879967,19.1439755 L17.2212505,15.2869266 C17.0159111,14.9899339 16.6012321,14.9115072 16.297223,15.1082167 C15.9905472,15.3049262 15.9078781,15.7034879 16.1118842,15.999195 L18.5319563,19.5001097 Z" id="Shape"></path>
                            <path d="M23.3333333,0 L8.66666667,0 C8.57733333,0 8.48933333,0.0186666667 8.408,0.052 C8.38266667,0.0626666667 8.364,0.0826666667 8.34133333,0.0973333333 C8.29066667,0.126666667 8.23733333,0.153333333 8.19466667,0.194666667 L0.194666667,8.19466667 C0.164,8.22533333 0.146666667,8.26666667 0.122666667,8.30266667 C0.0986666667,8.33866667 0.068,8.36933333 0.052,8.40933333 C0.0186666667,8.49066667 0,8.57733333 0,8.66666667 L0,31.3333333 C0,31.7013333 0.298666667,32 0.666666667,32 L23.3333333,32 C23.7013333,32 24,31.7013333 24,31.3333333 L24,0.666666667 C24,0.298666667 23.7013333,0 23.3333333,0 Z M8,2.276 L8,8 L2.276,8 L8,2.276 Z M22.6666667,30.6666667 L1.33333333,30.6666667 L1.33333333,9.33333333 L8.66666667,9.33333333 C9.03466667,9.33333333 9.33333333,9.03466667 9.33333333,8.66666667 L9.33333333,1.33333333 L22.6666667,1.33333333 L22.6666667,30.6666667 Z" id="Shape"></path>
                        </g>
                    </g>
                </g>
            </g>
        </g>
    </g>
</svg>