<?xml version="1.0" encoding="UTF-8"?>
<svg width="32px" height="21px" viewBox="0 0 32 21" version="1.1" xmlns="http://www.w3.org/2000/svg" xmlns:xlink="http://www.w3.org/1999/xlink">
    <!-- Generator: Sketch 46.2 (44496) - http://www.bohemiancoding.com/sketch -->
    <title>icons/partner</title>
    <desc>Created with Sketch.</desc>
    <defs></defs>
    <g id="––-Desktop-:-1920px" stroke="none" stroke-width="1" fill="none" fill-rule="evenodd">
        <g id="Assety" transform="translate(-140.000000, -214.000000)" fill-rule="nonzero" fill="#F33A21">
            <g id="icons" transform="translate(140.000000, 140.000000)">
                <g id="icons/partner" transform="translate(0.000000, 74.000000)">
                    <path d="M16,20.34375 C15.1813333,20.34375 14.124,19.8975 13.6333333,19.579875 C13.0386667,19.1953125 10.0546667,16.986375 7.572,14.9401875 C7.15866667,14.5989375 6.544,13.9663125 5.94933333,13.3546875 C5.508,12.901875 5.108,12.4858125 4.90133333,12.313875 C4.62,12.08025 4.58533333,11.6655 4.82266667,11.3885625 C5.05866667,11.1103125 5.47866667,11.074875 5.76266667,11.311125 C5.98933333,11.500125 6.43066667,11.9503125 6.91333333,12.4464375 C7.45733333,13.0055625 8.07333333,13.6381875 8.42933333,13.9335 C10.964,16.023 13.8986667,18.178125 14.3666667,18.4813125 C14.7573333,18.7359375 15.556,19.03125 16,19.03125 C16.624,19.03125 16.6813333,18.87375 16.7066667,18.808125 C16.7826667,18.6020625 16.9573333,18.4471875 17.1746667,18.3946875 C17.3893333,18.3435 17.6186667,18.3999375 17.784,18.5469375 C18.0493333,18.7858125 18.3453333,18.739875 18.5493333,18.66375 C18.972,18.5023125 19.296,18.088875 19.336,17.658375 C19.36,17.409 19.5253333,17.19375 19.7626667,17.1058125 C20,17.0191875 20.268,17.0690625 20.4546667,17.2396875 C20.6213333,17.3919375 21.0666667,17.4286875 21.4933333,17.2160625 C21.6613333,17.133375 22.0493333,16.8945 22.004,16.477125 C21.976,16.2225 22.1013333,15.9744375 22.3253333,15.8431875 C22.548,15.7119375 22.8293333,15.721125 23.0453333,15.8668125 C23.2413333,16.002 23.6026667,15.931125 23.8666667,15.708 C24.0466667,15.5570625 24.312,15.227625 24.0653333,14.7223125 C23.5653333,13.6985625 21.3426667,11.9293125 19.3826667,10.36875 C18.2986667,9.5064375 17.2693333,8.686125 16.5066667,7.9813125 C16.312,8.05875 16.1653333,8.1230625 16.04,8.1781875 C15.6933333,8.33175 15.4626667,8.42625 15.0386667,8.4905625 C14.012,9.8319375 12.6333333,10.3018125 11.1226667,9.8109375 C10.52,9.615375 10.1146667,9.195375 9.97733333,8.628375 C9.65733333,7.2961875 10.896,5.4796875 11.808,4.5819375 C14.204,2.2220625 15.8813333,1.336125 18.9386667,2.6814375 C21.5626667,3.83775 24.192,4.7420625 24.2186667,4.75125 C24.5666667,4.8706875 24.7493333,5.24475 24.6293333,5.5873125 C24.508,5.929875 24.1306667,6.111 23.78,5.9915625 C23.7533333,5.982375 21.0706667,5.0596875 18.3933333,3.8810625 C16.0333333,2.842875 14.916,3.3770625 12.7493333,5.5111875 C11.8386667,6.407625 11.136,7.749 11.276,8.3251875 C11.296,8.4091875 11.3333333,8.497125 11.5413333,8.565375 C12.1933333,8.780625 13.1693333,8.89875 14.112,7.5114375 C14.2226667,7.3486875 14.4013333,7.2436875 14.6,7.224 C15.0493333,7.179375 15.1613333,7.1295 15.4946667,6.9825 C15.7133333,6.8866875 15.9906667,6.7633125 16.44,6.6031875 C16.6813333,6.517875 16.9546667,6.575625 17.1373333,6.75675 C17.8666667,7.4746875 19.0106667,8.3855625 20.2213333,9.3489375 C22.392,11.0775 24.6386667,12.8664375 25.2666667,14.1553125 C25.7093333,15.059625 25.4986667,16.062375 24.7333333,16.7068125 C24.2813333,17.08875 23.7346667,17.2738125 23.204,17.24625 C23.012,17.7200625 22.6253333,18.125625 22.0906667,18.39075 C21.544,18.661125 20.9426667,18.7385625 20.4173333,18.6283125 C20.1346667,19.1926875 19.636,19.658625 19.0293333,19.889625 C18.516,20.0865 17.9826667,20.0851875 17.5133333,19.905375 C17.1626667,20.1954375 16.6573333,20.34375 16,20.34375 Z" id="Shape"></path>
                    <path d="M13.3333333,4.59375 L7.33333333,4.59375 C6.96533333,4.59375 6.66666667,4.29975 6.66666667,3.9375 C6.66666667,3.57525 6.96533333,3.28125 7.33333333,3.28125 L13.3333333,3.28125 C13.7013333,3.28125 14,3.57525 14,3.9375 C14,4.29975 13.7013333,4.59375 13.3333333,4.59375 Z" id="Shape"></path>
                    <path d="M24.7186667,15.070125 C24.504,15.070125 24.2933333,14.96775 24.164,14.7800625 C23.9586667,14.4795 24.04,14.0713125 24.3453333,13.8691875 L26.2946667,12.5803125 C26.6,12.3755625 27.0133333,12.45825 27.22,12.7588125 C27.4253333,13.059375 27.344,13.4675625 27.0386667,13.6696875 L25.0893333,14.9585625 C24.9746667,15.0346875 24.8453333,15.070125 24.7186667,15.070125 Z" id="Shape"></path>
                    <path d="M22.6666667,17.0625 C22.5226667,17.0625 22.376,17.0165625 22.2546667,16.9220625 C21.552,16.3760625 18.5293333,13.274625 18.1866667,12.922875 C17.932,12.6616875 17.94,12.245625 18.2066667,11.9949375 C18.472,11.7429375 18.8946667,11.752125 19.1493333,12.014625 C20.4693333,13.369125 22.604,15.5203125 23.0813333,15.8904375 C23.3706667,16.114875 23.42,16.5283125 23.192,16.8118125 C23.0586667,16.975875 22.8626667,17.0625 22.6666667,17.0625 Z" id="Shape"></path>
                    <path d="M20,18.375 C19.8546667,18.375 19.7066667,18.32775 19.584,18.2319375 C18.5946667,17.4523125 16.2,14.907375 16.176,14.8824375 C15.9266667,14.616 15.9453333,14.1999375 16.216,13.9545 C16.488,13.710375 16.908,13.726125 17.1586667,13.993875 C17.612,14.4795 19.6186667,16.5781875 20.4173333,17.206875 C20.704,17.432625 20.7506667,17.8460625 20.5213333,18.1295625 C20.3893333,18.2896875 20.1946667,18.375 20,18.375 Z" id="Shape"></path>
                    <path d="M17.3333333,19.6875 C17.1813333,19.6875 17.0293333,19.6363125 16.904,19.532625 C15.9213333,18.71625 14.06,16.77375 13.5133333,16.1975625 C13.2626667,15.9324375 13.276,15.5176875 13.5453333,15.269625 C13.8133333,15.0215625 14.236,15.036 14.488,15.301125 C14.868,15.7014375 16.8133333,17.73975 17.764,18.5285625 C18.0453333,18.7621875 18.0813333,19.175625 17.844,19.453875 C17.712,19.6074375 17.5226667,19.6875 17.3333333,19.6875 Z" id="Shape"></path>
                    <path d="M4.66666667,13.78125 L0.666666667,13.78125 C0.298666667,13.78125 0,13.48725 0,13.125 L0,1.3125 C0,1.131375 0.076,0.958125 0.209333333,0.83475 C0.342666667,0.7100625 0.517333333,0.648375 0.706666667,0.6575625 C2.08,0.737625 6.64933333,1.0828125 7.792,2.1485625 C7.94,2.2850625 8.01466667,2.4819375 7.99733333,2.6814375 C7.69466667,6.0939375 5.39733333,13.0344375 5.3,13.3284375 C5.21066667,13.5988125 4.95466667,13.78125 4.66666667,13.78125 Z M1.33333333,12.46875 L4.18,12.46875 C4.676,10.927875 6.27466667,5.8209375 6.628,2.9465625 C5.788,2.5449375 3.476,2.1826875 1.33333333,2.016 L1.33333333,12.46875 Z" id="Shape"></path>
                    <path d="M31.3333333,15.09375 L27.3333333,15.09375 C27.0333333,15.09375 26.7706667,14.896875 26.6906667,14.6120625 C26.1946667,12.8428125 23.6146667,5.5899375 22.7906667,4.284 C22.6906667,4.123875 22.664,3.9309375 22.7173333,3.751125 C22.7706667,3.5713125 22.9,3.423 23.0733333,3.3429375 C23.1946667,3.2878125 26.0986667,1.96875 31.3333333,1.96875 C31.7013333,1.96875 32,2.2614375 32,2.625 L32,14.4375 C32,14.79975 31.7013333,15.09375 31.3333333,15.09375 Z M27.832,13.78125 L30.6666667,13.78125 L30.6666667,3.289125 C27.4946667,3.362625 25.3093333,3.9466875 24.292,4.286625 C25.3333333,6.470625 27.2,11.75475 27.832,13.78125 Z" id="Shape"></path>
                </g>
            </g>
        </g>
    </g>
</svg>